<svg width="540" height="490" viewBox="0 0 540 490" fill="none" xmlns="http://www.w3.org/2000/svg">
<rect width="540" height="490" fill="white"/>
<g filter="url(#filter0_ddd_3547_13201)">
<g clip-path="url(#clip0_3547_13201)">
<rect x="88" y="102.097" width="364" height="175.472" rx="15" fill="white"/>
<rect width="369.235" height="57.7777" transform="translate(88 102.097)" fill="white"/>
<g clip-path="url(#clip1_3547_13201)">
<path d="M118.694 140.014C123.68 140.014 127.721 135.972 127.721 130.986C127.721 126 123.68 121.958 118.694 121.958C113.708 121.958 109.666 126 109.666 130.986C109.666 135.972 113.708 140.014 118.694 140.014Z" fill="#b5b5b5"/>
<path d="M118.276 125.571H115.492C116.035 127.835 117.614 129.773 119.595 130.988C117.612 132.204 116.035 134.141 115.492 136.406H118.276C118.964 134.312 120.875 132.673 123.223 132.302V129.678C120.877 129.307 118.966 127.666 118.276 125.573V125.571Z" fill="#171717"/>
<path d="M147.692 127.519C150.054 127.519 151.355 128.95 151.355 131.854V138.574H148.624V132.528C148.624 130.816 147.974 130.1 146.543 130.1C145.113 130.1 144.159 131.183 144.159 133.112V138.573H141.428V127.736H144.159V129.145C144.874 128.148 146.001 127.519 147.692 127.519ZM139.326 138.573H136.596V127.738H139.326V138.573ZM134.493 138.573H131.784V123.403H134.493V138.573ZM156.186 131.507C157.984 130.923 159.609 129.557 160.325 127.736H163.051C162.499 129.639 161.101 131.523 159.047 132.785C161.232 134.121 162.807 136.276 163.227 138.573H160.477C159.914 136.384 158.267 134.585 156.186 134.064V138.573H153.455V123.403H156.186V131.507ZM137.96 123.186C138.805 123.186 139.52 123.88 139.52 124.724C139.52 125.568 138.826 126.283 137.96 126.283C137.094 126.283 136.401 125.59 136.401 124.724C136.401 123.88 137.116 123.186 137.96 123.186Z" fill="#171717"/>
</g>
<g opacity="0.5">
<path d="M420.447 132.566C421.32 132.566 422.027 131.859 422.027 130.986C422.027 130.114 421.32 129.406 420.447 129.406C419.575 129.406 418.867 130.114 418.867 130.986C418.867 131.859 419.575 132.566 420.447 132.566Z" fill="#757575"/>
<path d="M425.187 132.566C426.059 132.566 426.767 131.859 426.767 130.986C426.767 130.114 426.059 129.406 425.187 129.406C424.314 129.406 423.607 130.114 423.607 130.986C423.607 131.859 424.314 132.566 425.187 132.566Z" fill="#757575"/>
<path d="M431.506 130.986C431.506 131.859 430.799 132.566 429.926 132.566C429.054 132.566 428.347 131.859 428.347 130.986C428.347 130.114 429.054 129.406 429.926 129.406C430.799 129.406 431.506 130.114 431.506 130.986Z" fill="#757575"/>
</g>
<rect opacity="0.05" x="88" y="159.875" width="364" height="0.902776" fill="black"/>
<rect width="369.235" height="58.111" transform="translate(88 160.778)" fill="white"/>
<path d="M110.852 185.063H117.887V186.323H112.277V189.638H117.032V190.898H112.277V194.573H117.887V195.833H110.852V185.063ZM120.661 191.138V195.833H119.311V187.988H120.661V189.053C121.081 188.408 121.831 187.838 122.926 187.838C123.976 187.838 124.711 188.363 125.101 189.173C125.536 188.528 126.376 187.838 127.606 187.838C129.226 187.838 130.201 188.993 130.201 190.658V195.833H128.851V191.018C128.851 189.923 128.401 189.098 127.291 189.098C126.391 189.098 125.431 189.863 125.431 191.138V195.833H124.081V191.018C124.081 189.923 123.631 189.098 122.521 189.098C121.621 189.098 120.661 189.863 120.661 191.138ZM137.807 194.123C137.807 194.708 137.852 195.338 137.927 195.833H136.592C136.562 195.608 136.547 195.338 136.532 195.023C136.052 195.593 135.182 195.968 134.162 195.968C132.737 195.968 131.567 195.113 131.567 193.703C131.567 192.143 132.797 191.483 134.552 191.138L136.502 190.748V190.268C136.502 189.398 135.872 189.023 134.912 189.023C133.877 189.023 133.307 189.458 133.202 190.298H131.882C132.002 188.633 133.307 187.838 134.987 187.838C136.727 187.838 137.807 188.633 137.807 190.073V194.123ZM136.502 193.163V191.798L134.912 192.128C133.712 192.368 132.917 192.698 132.917 193.643C132.917 194.408 133.487 194.873 134.342 194.873C135.497 194.873 136.502 194.168 136.502 193.163ZM139.703 186.623V185.063H141.173V186.623H139.703ZM141.113 187.988V195.833H139.763V187.988H141.113ZM144.491 185.063V195.833H143.141V185.063H144.491Z" fill="#606060"/>
<path d="M190.176 186.623V185.063H191.646V186.623H190.176ZM190.236 196.238V187.988H191.586V196.478C191.586 197.873 190.716 198.578 189.381 198.578C189.066 198.578 188.871 198.563 188.631 198.533V197.363C188.796 197.393 188.931 197.408 189.156 197.408C189.936 197.408 190.236 197.033 190.236 196.238ZM199.269 194.123C199.269 194.708 199.314 195.338 199.389 195.833H198.054C198.024 195.608 198.009 195.338 197.994 195.023C197.514 195.593 196.644 195.968 195.624 195.968C194.199 195.968 193.029 195.113 193.029 193.703C193.029 192.143 194.259 191.483 196.014 191.138L197.964 190.748V190.268C197.964 189.398 197.334 189.023 196.374 189.023C195.339 189.023 194.769 189.458 194.664 190.298H193.344C193.464 188.633 194.769 187.838 196.449 187.838C198.189 187.838 199.269 188.633 199.269 190.073V194.123ZM197.964 193.163V191.798L196.374 192.128C195.174 192.368 194.379 192.698 194.379 193.643C194.379 194.408 194.949 194.873 195.804 194.873C196.959 194.873 197.964 194.168 197.964 193.163ZM201.225 195.833V187.988H202.575V189.053C203.025 188.408 203.805 187.838 204.915 187.838C206.58 187.838 207.525 188.993 207.525 190.658V195.833H206.175V191.018C206.175 189.923 205.71 189.098 204.54 189.098C203.565 189.098 202.575 189.848 202.575 191.153V195.833H201.225ZM212.601 195.998C210.426 195.998 208.926 194.333 208.926 191.918C208.926 189.578 210.411 187.838 212.541 187.838C214.731 187.838 215.886 189.503 215.886 191.678V192.128H210.216C210.291 193.778 211.236 194.828 212.601 194.828C213.651 194.828 214.401 194.258 214.641 193.328L215.826 193.748C215.346 195.143 214.161 195.998 212.601 195.998ZM212.526 188.993C211.386 188.993 210.531 189.758 210.291 191.093H214.521C214.491 189.983 213.891 188.993 212.526 188.993ZM216.865 195.833V194.063H218.575V195.833H216.865ZM222.72 195.998C220.545 195.998 219.3 194.138 219.3 191.918C219.3 189.683 220.545 187.838 222.72 187.838C223.815 187.838 224.685 188.363 225.15 189.128V185.063H226.5V195.833H225.15V194.693C224.685 195.473 223.815 195.998 222.72 195.998ZM225.18 191.648C225.18 189.818 224.07 189.023 222.96 189.023C221.49 189.023 220.665 190.223 220.665 191.918C220.665 193.598 221.49 194.813 222.96 194.813C224.07 194.813 225.18 194.003 225.18 192.203V191.648ZM228.446 186.623V185.063H229.916V186.623H228.446ZM229.856 187.988V195.833H228.506V187.988H229.856ZM237.539 194.123C237.539 194.708 237.584 195.338 237.659 195.833H236.324C236.294 195.608 236.279 195.338 236.264 195.023C235.784 195.593 234.914 195.968 233.894 195.968C232.469 195.968 231.299 195.113 231.299 193.703C231.299 192.143 232.529 191.483 234.284 191.138L236.234 190.748V190.268C236.234 189.398 235.604 189.023 234.644 189.023C233.609 189.023 233.039 189.458 232.934 190.298H231.614C231.734 188.633 233.039 187.838 234.719 187.838C236.459 187.838 237.539 188.633 237.539 190.073V194.123ZM236.234 193.163V191.798L234.644 192.128C233.444 192.368 232.649 192.698 232.649 193.643C232.649 194.408 233.219 194.873 234.074 194.873C235.229 194.873 236.234 194.168 236.234 193.163ZM245.165 194.678V195.833H238.985V194.813L243.515 189.143H239.045V187.988H245.12V189.023L240.68 194.678H245.165ZM255.087 194.213C255.972 194.213 256.872 193.193 256.872 191.258C256.872 188.708 254.997 187.148 252.387 187.148C249.447 187.148 247.137 189.458 247.137 192.503C247.137 195.458 249.252 197.198 252.147 197.198C253.497 197.198 254.622 196.898 255.657 196.193L256.212 197.093C255.057 197.933 253.647 198.278 252.162 198.278C248.667 198.278 245.937 196.133 245.937 192.488C245.937 188.933 248.742 186.098 252.432 186.098C255.552 186.098 258.027 188.093 258.027 191.183C258.027 193.853 256.467 195.218 254.952 195.218C254.022 195.218 253.467 194.843 253.257 194.213C252.852 194.873 252.087 195.263 251.262 195.263C249.942 195.263 248.952 194.318 248.952 192.698C248.952 190.688 250.272 188.963 251.967 188.963C252.927 188.963 253.527 189.488 253.722 190.028L253.917 189.083H255.132L254.397 193.118C254.262 193.928 254.547 194.213 255.087 194.213ZM253.197 192.428C253.347 191.648 253.362 191.453 253.362 191.288C253.362 190.628 252.942 190.043 252.192 190.043C251.067 190.043 250.302 191.243 250.302 192.668C250.302 193.598 250.767 194.168 251.562 194.168C252.387 194.168 252.987 193.478 253.197 192.428ZM262.657 195.998C260.482 195.998 258.982 194.333 258.982 191.918C258.982 189.578 260.467 187.838 262.597 187.838C264.787 187.838 265.942 189.503 265.942 191.678V192.128H260.272C260.347 193.778 261.292 194.828 262.657 194.828C263.707 194.828 264.457 194.258 264.697 193.328L265.882 193.748C265.402 195.143 264.217 195.998 262.657 195.998ZM262.582 188.993C261.442 188.993 260.587 189.758 260.347 191.093H264.577C264.547 189.983 263.947 188.993 262.582 188.993ZM271.905 195.833L269.73 192.743L267.57 195.833H266.1L268.965 191.738L266.34 187.988H267.885L269.775 190.733L271.695 187.988H273.18L270.555 191.738L273.435 195.833H271.905ZM279.975 194.123C279.975 194.708 280.02 195.338 280.095 195.833H278.76C278.73 195.608 278.715 195.338 278.7 195.023C278.22 195.593 277.35 195.968 276.33 195.968C274.905 195.968 273.735 195.113 273.735 193.703C273.735 192.143 274.965 191.483 276.72 191.138L278.67 190.748V190.268C278.67 189.398 278.04 189.023 277.08 189.023C276.045 189.023 275.475 189.458 275.37 190.298H274.05C274.17 188.633 275.475 187.838 277.155 187.838C278.895 187.838 279.975 188.633 279.975 190.073V194.123ZM278.67 193.163V191.798L277.08 192.128C275.88 192.368 275.085 192.698 275.085 193.643C275.085 194.408 275.655 194.873 276.51 194.873C277.665 194.873 278.67 194.168 278.67 193.163ZM283.281 191.138V195.833H281.931V187.988H283.281V189.053C283.701 188.408 284.451 187.838 285.546 187.838C286.596 187.838 287.331 188.363 287.721 189.173C288.156 188.528 288.996 187.838 290.226 187.838C291.846 187.838 292.821 188.993 292.821 190.658V195.833H291.471V191.018C291.471 189.923 291.021 189.098 289.911 189.098C289.011 189.098 288.051 189.863 288.051 191.138V195.833H286.701V191.018C286.701 189.923 286.251 189.098 285.141 189.098C284.241 189.098 283.281 189.863 283.281 191.138ZM298.552 195.998C297.457 195.998 296.587 195.473 296.122 194.693V198.533H294.772V187.988H296.122V189.128C296.587 188.363 297.457 187.838 298.552 187.838C300.727 187.838 301.972 189.683 301.972 191.918C301.972 194.138 300.727 195.998 298.552 195.998ZM296.092 191.648V192.203C296.092 194.003 297.202 194.813 298.312 194.813C299.782 194.813 300.607 193.598 300.607 191.918C300.607 190.223 299.782 189.023 298.312 189.023C297.202 189.023 296.092 189.818 296.092 191.648ZM304.802 185.063V195.833H303.452V185.063H304.802ZM309.965 195.998C307.79 195.998 306.29 194.333 306.29 191.918C306.29 189.578 307.775 187.838 309.905 187.838C312.095 187.838 313.25 189.503 313.25 191.678V192.128H307.58C307.655 193.778 308.6 194.828 309.965 194.828C311.015 194.828 311.765 194.258 312.005 193.328L313.19 193.748C312.71 195.143 311.525 195.998 309.965 195.998ZM309.89 188.993C308.75 188.993 307.895 189.758 307.655 191.093H311.885C311.855 189.983 311.255 188.993 309.89 188.993ZM314.229 195.833V194.063H315.939V195.833H314.229ZM318.014 191.918C318.014 193.703 318.974 194.813 320.369 194.813C321.449 194.813 322.094 194.123 322.319 193.148L323.519 193.703C323.144 195.008 322.004 195.998 320.369 195.998C318.179 195.998 316.664 194.333 316.664 191.918C316.664 189.488 318.179 187.838 320.369 187.838C322.004 187.838 323.114 188.783 323.489 190.088L322.319 190.673C322.094 189.713 321.449 189.008 320.369 189.008C318.974 189.008 318.014 190.118 318.014 191.918ZM331.521 191.918C331.521 194.348 330.021 195.998 327.876 195.998C325.731 195.998 324.231 194.348 324.231 191.918C324.231 189.488 325.731 187.838 327.876 187.838C330.021 187.838 331.521 189.488 331.521 191.918ZM325.596 191.918C325.596 193.703 326.496 194.843 327.876 194.843C329.256 194.843 330.156 193.703 330.156 191.918C330.156 190.118 329.256 188.978 327.876 188.978C326.496 188.978 325.596 190.118 325.596 191.918ZM334.362 191.138V195.833H333.012V187.988H334.362V189.053C334.782 188.408 335.532 187.838 336.627 187.838C337.677 187.838 338.412 188.363 338.802 189.173C339.237 188.528 340.077 187.838 341.307 187.838C342.927 187.838 343.902 188.993 343.902 190.658V195.833H342.552V191.018C342.552 189.923 342.102 189.098 340.992 189.098C340.092 189.098 339.132 189.863 339.132 191.138V195.833H337.782V191.018C337.782 189.923 337.332 189.098 336.222 189.098C335.322 189.098 334.362 189.863 334.362 191.138Z" fill="#3a3a3a"/>
<rect opacity="0.05" x="88" y="218.889" width="364" height="0.902776" fill="black"/>
<rect width="369.235" height="57.7777" transform="translate(88 219.792)" fill="white"/>
<path d="M112.292 250.166V254.681H110.852V243.911H114.962C117.242 243.911 118.697 244.976 118.697 247.031C118.697 249.056 117.242 250.166 114.962 250.166H112.292ZM112.292 248.921H114.887C116.417 248.921 117.272 248.246 117.272 247.031C117.272 245.816 116.417 245.156 114.887 245.156H112.292V248.921ZM125.318 252.971C125.318 253.556 125.363 254.186 125.438 254.681H124.103C124.073 254.456 124.058 254.186 124.043 253.871C123.563 254.441 122.693 254.816 121.673 254.816C120.248 254.816 119.078 253.961 119.078 252.551C119.078 250.991 120.308 250.331 122.063 249.986L124.013 249.596V249.116C124.013 248.246 123.383 247.871 122.423 247.871C121.388 247.871 120.818 248.306 120.713 249.146H119.393C119.513 247.481 120.818 246.686 122.498 246.686C124.238 246.686 125.318 247.481 125.318 248.921V252.971ZM124.013 252.011V250.646L122.423 250.976C121.223 251.216 120.428 251.546 120.428 252.491C120.428 253.256 120.998 253.721 121.853 253.721C123.008 253.721 124.013 253.016 124.013 252.011ZM130.067 255.536C129.617 256.721 129.002 257.471 127.637 257.471C127.307 257.471 127.142 257.456 126.902 257.411V256.241C127.157 256.301 127.322 256.316 127.547 256.316C128.132 256.316 128.447 256.106 128.762 255.326L129.137 254.396L126.227 246.836H127.652L129.857 252.836L132.032 246.836H133.442L130.067 255.536ZM141.207 246.836H142.347L143.967 252.686L145.602 246.836H146.952L144.567 254.681H143.382L141.747 248.861L140.112 254.681H138.927L136.542 246.836H137.937L139.587 252.671L141.207 246.836ZM147.982 245.471V243.911H149.452V245.471H147.982ZM149.392 246.836V254.681H148.042V246.836H149.392ZM151.63 252.806V247.991H150.415V246.836H151.63V244.541H152.965V246.836H154.75V247.991H152.965V252.596C152.965 253.421 153.37 253.571 154.06 253.571C154.375 253.571 154.6 253.556 154.915 253.481V254.636C154.57 254.711 154.18 254.756 153.73 254.756C152.395 254.756 151.63 254.306 151.63 252.806ZM156.292 254.681V243.911H157.642V247.901C158.092 247.256 158.872 246.686 159.982 246.686C161.647 246.686 162.592 247.841 162.592 249.506V254.681H161.242V249.866C161.242 248.771 160.777 247.946 159.607 247.946C158.632 247.946 157.642 248.696 157.642 250.001V254.681H156.292Z" fill="#606060"/>
<g clip-path="url(#clip2_3547_13201)">
<path d="M215.541 239.051H191.57C190.212 239.051 189.111 240.163 189.111 241.536V255.825C189.111 257.197 190.212 258.31 191.57 258.31H215.541C216.899 258.31 218 257.197 218 255.825V241.536C218 240.163 216.899 239.051 215.541 239.051Z" fill="white"/>
<path d="M191.57 239.334H215.542C216.74 239.334 217.716 240.317 217.716 241.536V255.825C217.716 257.044 216.74 258.026 215.542 258.026H191.57C190.371 258.026 189.394 257.044 189.394 255.825V241.536C189.394 240.317 190.371 239.334 191.57 239.334Z" stroke="black" stroke-opacity="0.2" stroke-width="0.566448"/>
<path d="M192.231 246.089C191.588 245.733 190.854 245.446 190.033 245.247L190.067 245.092H193.432C193.888 245.108 194.258 245.247 194.379 245.737L195.11 249.26L195.334 250.322L197.382 245.092H199.593L196.306 252.753H194.095L192.231 246.089ZM201.22 252.761H199.128L200.437 245.092H202.528L201.22 252.761ZM208.801 245.279L208.516 246.935L208.327 246.854C207.949 246.699 207.449 246.544 206.769 246.56C205.944 246.56 205.573 246.895 205.565 247.221C205.565 247.58 206.013 247.817 206.744 248.168C207.949 248.714 208.508 249.383 208.5 250.256C208.483 251.847 207.054 252.875 204.86 252.875C203.922 252.867 203.018 252.679 202.528 252.467L202.82 250.746L203.096 250.868C203.775 251.154 204.223 251.276 205.058 251.276C205.66 251.276 206.305 251.039 206.314 250.525C206.314 250.191 206.038 249.946 205.229 249.571C204.438 249.203 203.379 248.592 203.397 247.49C203.406 245.997 204.86 244.953 206.925 244.953C207.734 244.953 208.388 245.124 208.801 245.279ZM211.58 250.044H213.318C213.232 249.661 212.836 247.825 212.836 247.825L212.69 247.164C212.587 247.45 212.406 247.915 212.415 247.898C212.415 247.898 211.752 249.604 211.58 250.044ZM214.161 245.092L215.849 252.761H213.912C213.912 252.761 213.723 251.88 213.663 251.611H210.978C210.9 251.814 210.539 252.761 210.539 252.761H208.345L211.451 245.728C211.666 245.23 212.045 245.092 212.544 245.092H214.161Z" fill="#727272"/>
</g>
<path d="M235.286 247.464C236.476 247.464 237.4 248.346 237.4 249.606C237.4 250.838 236.476 251.72 235.286 251.72C234.096 251.72 233.158 250.838 233.158 249.606C233.158 248.346 234.096 247.464 235.286 247.464ZM240.734 247.464C241.924 247.464 242.848 248.346 242.848 249.606C242.848 250.838 241.924 251.72 240.734 251.72C239.544 251.72 238.606 250.838 238.606 249.606C238.606 248.346 239.544 247.464 240.734 247.464ZM246.183 247.464C247.373 247.464 248.297 248.346 248.297 249.606C248.297 250.838 247.373 251.72 246.183 251.72C244.993 251.72 244.055 250.838 244.055 249.606C244.055 248.346 244.993 247.464 246.183 247.464ZM251.631 247.464C252.821 247.464 253.745 248.346 253.745 249.606C253.745 250.838 252.821 251.72 251.631 251.72C250.441 251.72 249.503 250.838 249.503 249.606C249.503 248.346 250.441 247.464 251.631 247.464ZM263.278 253.68H262.032V251.062H257.174V250.012L261.584 243.628H263.292V249.942H265.238V251.062H263.278V253.68ZM258.546 249.942H262.018V244.916L258.546 249.942ZM265.5 252.574L268.468 250.11C269.84 248.976 270.904 248.01 270.904 246.694C270.904 245.462 270.106 244.622 268.874 244.622C267.67 244.622 266.844 245.546 266.844 246.694C266.844 247.058 266.928 247.436 267.068 247.786H265.808C265.654 247.352 265.584 247.016 265.584 246.624C265.584 244.832 267.054 243.474 268.902 243.474C270.932 243.474 272.22 244.762 272.22 246.61C272.22 248.318 271.044 249.494 269.602 250.656L267.334 252.504H272.416V253.68H265.5V252.574ZM278.714 253.68H277.468V251.062H272.61V250.012L277.02 243.628H278.728V249.942H280.674V251.062H278.714V253.68ZM273.982 249.942H277.454V244.916L273.982 249.942ZM280.935 252.574L283.903 250.11C285.275 248.976 286.339 248.01 286.339 246.694C286.339 245.462 285.541 244.622 284.309 244.622C283.105 244.622 282.279 245.546 282.279 246.694C282.279 247.058 282.363 247.436 282.503 247.786H281.243C281.089 247.352 281.019 247.016 281.019 246.624C281.019 244.832 282.489 243.474 284.337 243.474C286.367 243.474 287.655 244.762 287.655 246.61C287.655 248.318 286.479 249.494 285.037 250.656L282.769 252.504H287.851V253.68H280.935V252.574Z" fill="#343434"/>
<g opacity="0.5">
<path fill-rule="evenodd" clip-rule="evenodd" d="M429.783 246.237C430.136 245.884 430.708 245.884 431.061 246.237C431.414 246.59 431.414 247.162 431.061 247.515L425.374 253.202C425.021 253.555 424.45 253.555 424.097 253.202L418.41 247.515C418.057 247.162 418.057 246.59 418.41 246.237C418.763 245.884 419.335 245.884 419.688 246.237L424.735 251.285L429.783 246.237Z" fill="#757575"/>
</g>
</g>
</g>
<rect x="88" y="299.236" width="364" height="50" rx="12" fill="#b5b5b5"/>
<path d="M261.229 326.22V330.236H259.38V319.865H263.526C265.837 319.865 267.281 320.948 267.281 323.043C267.281 325.108 265.837 326.22 263.526 326.22H261.229ZM261.229 324.632H263.425C264.753 324.632 265.461 324.054 265.461 323.043C265.461 322.017 264.753 321.454 263.425 321.454H261.229V324.632ZM273.762 328.416C273.762 329.037 273.791 329.687 273.878 330.236H272.188C272.159 330.048 272.144 329.846 272.144 329.629C271.653 330.106 270.902 330.366 269.992 330.366C268.548 330.366 267.435 329.485 267.435 328.127C267.435 326.683 268.519 326.047 269.978 325.744L272.072 325.31V324.935C272.072 324.256 271.595 324.01 270.815 324.01C269.905 324.01 269.515 324.372 269.472 325.036H267.782C267.84 323.288 269.169 322.508 270.917 322.508C272.693 322.508 273.762 323.288 273.762 324.66V328.416ZM272.072 327.564V326.639L270.44 326.986C269.703 327.145 269.154 327.376 269.154 328.055C269.154 328.647 269.588 328.979 270.252 328.979C271.177 328.979 272.072 328.488 272.072 327.564ZM278.456 330.944C278.023 332.099 277.358 332.894 275.784 332.894C275.423 332.894 275.322 332.879 275.076 332.85V331.392C275.307 331.42 275.437 331.435 275.654 331.435C276.232 331.435 276.506 331.276 276.752 330.669L277.041 329.962L274.282 322.653H276.102L277.965 327.968L279.785 322.653H281.576L278.456 330.944Z" fill="#343434"/>
<path d="M222.736 381.011V384.903H220.944V374.851H224.962C227.202 374.851 228.602 375.901 228.602 377.931C228.602 379.933 227.202 381.011 224.962 381.011H222.736ZM222.736 379.471H224.864C226.152 379.471 226.838 378.911 226.838 377.931C226.838 376.937 226.152 376.391 224.864 376.391H222.736V379.471ZM234.967 383.139C234.967 383.741 234.995 384.371 235.079 384.903H233.441C233.413 384.721 233.399 384.525 233.399 384.315C232.923 384.777 232.195 385.029 231.313 385.029C229.913 385.029 228.835 384.175 228.835 382.859C228.835 381.459 229.885 380.843 231.299 380.549L233.329 380.129V379.765C233.329 379.107 232.867 378.869 232.111 378.869C231.229 378.869 230.851 379.219 230.809 379.863H229.171C229.227 378.169 230.515 377.413 232.209 377.413C233.931 377.413 234.967 378.169 234.967 379.499V383.139ZM233.329 382.313V381.417L231.747 381.753C231.033 381.907 230.501 382.131 230.501 382.789C230.501 383.363 230.921 383.685 231.565 383.685C232.461 383.685 233.329 383.209 233.329 382.313ZM239.6 385.589C239.18 386.709 238.536 387.479 237.01 387.479C236.66 387.479 236.562 387.465 236.324 387.437V386.023C236.548 386.051 236.674 386.065 236.884 386.065C237.444 386.065 237.71 385.911 237.948 385.323L238.228 384.637L235.554 377.553H237.318L239.124 382.705L240.888 377.553H242.624L239.6 385.589ZM249.645 377.553H251.031L252.347 382.425L253.649 377.553H255.315L253.103 384.903H251.647L250.303 380.087L248.959 384.903H247.503L245.291 377.553H247.013L248.343 382.425L249.645 377.553ZM256.058 376.573V374.851H257.794V376.573H256.058ZM257.766 377.553V384.903H256.086V377.553H257.766ZM259.55 383.055V378.981H258.528V377.553H259.55V375.397H261.202V377.553H262.742V378.981H261.202V382.789C261.202 383.447 261.58 383.517 262.182 383.517C262.462 383.517 262.616 383.503 262.868 383.475V384.889C262.56 384.945 262.14 384.987 261.706 384.987C260.306 384.987 259.55 384.553 259.55 383.055ZM263.991 384.903V374.851H265.671V378.337C266.091 377.847 266.749 377.413 267.701 377.413C269.241 377.413 270.165 378.477 270.165 380.059V384.903H268.485V380.549C268.485 379.639 268.121 378.981 267.197 378.981C266.441 378.981 265.671 379.541 265.671 380.591V384.903H263.991ZM278.366 381.235C278.366 383.517 276.896 385.057 274.824 385.057C272.752 385.057 271.282 383.517 271.282 381.235C271.282 378.953 272.752 377.413 274.824 377.413C276.896 377.413 278.366 378.953 278.366 381.235ZM272.976 381.235C272.976 382.733 273.69 383.643 274.824 383.643C275.958 383.643 276.672 382.733 276.672 381.235C276.672 379.737 275.958 378.827 274.824 378.827C273.69 378.827 272.976 379.737 272.976 381.235ZM285.656 377.553V384.903H283.976V384.119C283.556 384.609 282.926 385.057 281.974 385.057C280.434 385.057 279.482 384.007 279.482 382.425V377.553H281.162V382.061C281.162 382.957 281.554 383.531 282.464 383.531C283.22 383.531 283.976 382.971 283.976 381.921V377.553H285.656ZM287.445 383.055V378.981H286.423V377.553H287.445V375.397H289.097V377.553H290.637V378.981H289.097V382.789C289.097 383.447 289.475 383.517 290.077 383.517C290.357 383.517 290.511 383.503 290.763 383.475V384.889C290.455 384.945 290.035 384.987 289.601 384.987C288.201 384.987 287.445 384.553 287.445 383.055ZM294.706 384.903V374.851H296.498V383.335H301.23V384.903H294.706ZM302.156 376.573V374.851H303.892V376.573H302.156ZM303.864 377.553V384.903H302.184V377.553H303.864ZM305.494 384.903V377.553H307.174V378.337C307.594 377.847 308.252 377.413 309.204 377.413C310.744 377.413 311.668 378.477 311.668 380.059V384.903H309.988V380.549C309.988 379.639 309.624 378.981 308.7 378.981C307.944 378.981 307.174 379.541 307.174 380.591V384.903H305.494ZM314.927 374.851V380.647L317.755 377.553H319.813L317.041 380.409L320.037 384.903H318.091L315.893 381.585L314.927 382.565V384.903H313.247V374.851H314.927Z" fill="#a3a3a3"/>
<defs>
<filter id="filter0_ddd_3547_13201" x="77.1667" y="94.8752" width="385.667" height="197.139" filterUnits="userSpaceOnUse" color-interpolation-filters="sRGB">
<feFlood flood-opacity="0" result="BackgroundImageFix"/>
<feColorMatrix in="SourceAlpha" type="matrix" values="0 0 0 0 0 0 0 0 0 0 0 0 0 0 0 0 0 0 127 0" result="hardAlpha"/>
<feMorphology radius="0.902776" operator="dilate" in="SourceAlpha" result="effect1_dropShadow_3547_13201"/>
<feOffset/>
<feComposite in2="hardAlpha" operator="out"/>
<feColorMatrix type="matrix" values="0 0 0 0 0.0431373 0 0 0 0 0.101961 0 0 0 0 0.14902 0 0 0 0.06 0"/>
<feBlend mode="normal" in2="BackgroundImageFix" result="effect1_dropShadow_3547_13201"/>
<feColorMatrix in="SourceAlpha" type="matrix" values="0 0 0 0 0 0 0 0 0 0 0 0 0 0 0 0 0 0 127 0" result="hardAlpha"/>
<feOffset dy="3.6111"/>
<feGaussianBlur stdDeviation="5.41666"/>
<feComposite in2="hardAlpha" operator="out"/>
<feColorMatrix type="matrix" values="0 0 0 0 0 0 0 0 0 0 0 0 0 0 0 0 0 0 0.03 0"/>
<feBlend mode="normal" in2="effect1_dropShadow_3547_13201" result="effect2_dropShadow_3547_13201"/>
<feColorMatrix in="SourceAlpha" type="matrix" values="0 0 0 0 0 0 0 0 0 0 0 0 0 0 0 0 0 0 127 0" result="hardAlpha"/>
<feOffset dy="0.902776"/>
<feGaussianBlur stdDeviation="1.35416"/>
<feComposite in2="hardAlpha" operator="out"/>
<feColorMatrix type="matrix" values="0 0 0 0 0 0 0 0 0 0 0 0 0 0 0 0 0 0 0.04 0"/>
<feBlend mode="normal" in2="effect2_dropShadow_3547_13201" result="effect3_dropShadow_3547_13201"/>
<feBlend mode="normal" in="SourceGraphic" in2="effect3_dropShadow_3547_13201" result="shape"/>
</filter>
<clipPath id="clip0_3547_13201">
<rect x="88" y="102.097" width="364" height="175.472" rx="15" fill="white"/>
</clipPath>
<clipPath id="clip1_3547_13201">
<rect width="58.0917" height="18.0555" fill="white" transform="translate(109.667 121.958)"/>
</clipPath>
<clipPath id="clip2_3547_13201">
<rect width="28.8888" height="19.2592" fill="white" transform="translate(189.111 239.051)"/>
</clipPath>
</defs>
</svg>
