<svg width="480" height="296" viewBox="0 0 480 296" fill="none" xmlns="http://www.w3.org/2000/svg">
<g clip-path="url(#clip0_1249_41982)">
<rect width="480" height="296" rx="8" fill="white"/>
<g filter="url(#filter0_dd_1249_41982)">
<rect x="48" y="134" width="382" height="126" rx="4" fill="white"/>
<rect x="48.5" y="134.5" width="381" height="125" rx="3.5" stroke="#f9f9f9"/>
</g>
<path d="M60.052 156.076L61.027 155.296C61.612 156.414 62.665 157.064 63.874 157.064C65.083 157.064 66.019 156.466 66.019 155.4C66.019 154.269 64.94 154.074 63.523 153.736C62.054 153.385 60.598 152.982 60.598 151.227C60.598 149.589 62.015 148.523 63.783 148.523C65.408 148.523 66.578 149.303 67.137 150.356L66.188 151.11C65.707 150.213 64.966 149.602 63.757 149.602C62.626 149.602 61.807 150.226 61.807 151.123C61.807 152.111 62.678 152.319 63.991 152.631C65.538 152.995 67.241 153.32 67.241 155.296C67.241 157.038 65.694 158.143 63.848 158.143C62.236 158.143 60.689 157.337 60.052 156.076ZM74.1999 151.201V158H73.0299V157.064C72.6399 157.636 71.9769 158.143 71.0149 158.143C69.5589 158.143 68.7399 157.142 68.7399 155.699V151.201H69.9099V155.452C69.9099 156.414 70.3259 157.064 71.3269 157.064C72.1719 157.064 73.0299 156.427 73.0299 155.296V151.201H74.1999ZM82.1018 157.389C82.1018 159.378 80.7888 160.483 78.9428 160.483C77.4478 160.483 76.3558 159.794 75.9788 158.546L77.0708 158.13C77.2918 159.001 77.9938 159.508 78.9428 159.508C80.1388 159.508 80.9318 158.897 80.9318 157.48V156.713C80.5678 157.376 79.8008 157.844 78.8518 157.844C76.9928 157.844 75.9008 156.31 75.9008 154.451C75.9008 152.605 76.9928 151.071 78.8518 151.071C79.7878 151.071 80.5678 151.539 80.9318 152.202V151.201H82.1018V157.389ZM80.9448 154.347C80.9448 152.826 80.0348 152.098 79.0598 152.098C77.8248 152.098 77.0708 153.021 77.0708 154.451C77.0708 155.881 77.8248 156.817 79.0598 156.817C80.0348 156.817 80.9448 156.089 80.9448 154.594V154.347ZM89.9697 157.389C89.9697 159.378 88.6567 160.483 86.8107 160.483C85.3157 160.483 84.2237 159.794 83.8467 158.546L84.9387 158.13C85.1597 159.001 85.8617 159.508 86.8107 159.508C88.0067 159.508 88.7997 158.897 88.7997 157.48V156.713C88.4357 157.376 87.6687 157.844 86.7197 157.844C84.8607 157.844 83.7687 156.31 83.7687 154.451C83.7687 152.605 84.8607 151.071 86.7197 151.071C87.6557 151.071 88.4357 151.539 88.7997 152.202V151.201H89.9697V157.389ZM88.8127 154.347C88.8127 152.826 87.9027 152.098 86.9277 152.098C85.6927 152.098 84.9387 153.021 84.9387 154.451C84.9387 155.881 85.6927 156.817 86.9277 156.817C87.9027 156.817 88.8127 156.089 88.8127 154.594V154.347ZM94.8338 158.143C92.9488 158.143 91.6488 156.7 91.6488 154.607C91.6488 152.579 92.9358 151.071 94.7818 151.071C96.6798 151.071 97.6808 152.514 97.6808 154.399V154.789H92.7668C92.8318 156.219 93.6508 157.129 94.8338 157.129C95.7438 157.129 96.3938 156.635 96.6018 155.829L97.6288 156.193C97.2128 157.402 96.1858 158.143 94.8338 158.143ZM94.7688 152.072C93.7808 152.072 93.0398 152.735 92.8318 153.892H96.4978C96.4718 152.93 95.9518 152.072 94.7688 152.072ZM98.5833 156.557L99.4933 155.894C99.8573 156.687 100.689 157.168 101.573 157.168C102.366 157.168 103.068 156.83 103.068 156.089C103.068 155.348 102.418 155.244 101.3 155.01C100.182 154.763 99.0123 154.516 99.0123 153.125C99.0123 151.916 100.065 151.071 101.508 151.071C102.73 151.071 103.731 151.669 104.134 152.475L103.302 153.138C102.951 152.462 102.314 152.033 101.456 152.033C100.676 152.033 100.156 152.423 100.156 153.034C100.156 153.671 100.754 153.788 101.703 153.996C102.873 154.269 104.212 154.503 104.212 155.985C104.212 157.285 103.029 158.143 101.573 158.143C100.338 158.143 99.1033 157.61 98.5833 156.557ZM106.042 156.375V152.202H104.989V151.201H106.042V149.212H107.199V151.201H108.746V152.202H107.199V156.193C107.199 156.908 107.55 157.038 108.148 157.038C108.421 157.038 108.616 157.025 108.889 156.96V157.961C108.59 158.026 108.252 158.065 107.862 158.065C106.705 158.065 106.042 157.675 106.042 156.375ZM110.426 150.018V148.666H111.7V150.018H110.426ZM111.648 151.201V158H110.478V151.201H111.648ZM119.651 154.607C119.651 156.713 118.351 158.143 116.492 158.143C114.633 158.143 113.333 156.713 113.333 154.607C113.333 152.501 114.633 151.071 116.492 151.071C118.351 151.071 119.651 152.501 119.651 154.607ZM114.516 154.607C114.516 156.154 115.296 157.142 116.492 157.142C117.688 157.142 118.468 156.154 118.468 154.607C118.468 153.047 117.688 152.059 116.492 152.059C115.296 152.059 114.516 153.047 114.516 154.607ZM121.338 158V151.201H122.508V152.124C122.898 151.565 123.574 151.071 124.536 151.071C125.979 151.071 126.798 152.072 126.798 153.515V158H125.628V153.827C125.628 152.878 125.225 152.163 124.211 152.163C123.366 152.163 122.508 152.813 122.508 153.944V158H121.338ZM128.122 156.557L129.032 155.894C129.396 156.687 130.228 157.168 131.112 157.168C131.905 157.168 132.607 156.83 132.607 156.089C132.607 155.348 131.957 155.244 130.839 155.01C129.721 154.763 128.551 154.516 128.551 153.125C128.551 151.916 129.604 151.071 131.047 151.071C132.269 151.071 133.27 151.669 133.673 152.475L132.841 153.138C132.49 152.462 131.853 152.033 130.995 152.033C130.215 152.033 129.695 152.423 129.695 153.034C129.695 153.671 130.293 153.788 131.242 153.996C132.412 154.269 133.751 154.503 133.751 155.985C133.751 157.285 132.568 158.143 131.112 158.143C129.877 158.143 128.642 157.61 128.122 156.557ZM141.617 158.143C140.668 158.143 139.914 157.688 139.511 157.012V160.34H138.341V151.201H139.511V152.189C139.914 151.526 140.668 151.071 141.617 151.071C143.502 151.071 144.581 152.67 144.581 154.607C144.581 156.531 143.502 158.143 141.617 158.143ZM139.485 154.373V154.854C139.485 156.414 140.447 157.116 141.409 157.116C142.683 157.116 143.398 156.063 143.398 154.607C143.398 153.138 142.683 152.098 141.409 152.098C140.447 152.098 139.485 152.787 139.485 154.373ZM152.11 154.607C152.11 156.713 150.81 158.143 148.951 158.143C147.092 158.143 145.792 156.713 145.792 154.607C145.792 152.501 147.092 151.071 148.951 151.071C150.81 151.071 152.11 152.501 152.11 154.607ZM146.975 154.607C146.975 156.154 147.755 157.142 148.951 157.142C150.147 157.142 150.927 156.154 150.927 154.607C150.927 153.047 150.147 152.059 148.951 152.059C147.755 152.059 146.975 153.047 146.975 154.607ZM156.908 151.201H157.896L159.3 156.271L160.717 151.201H161.887L159.82 158H158.793L157.376 152.956L155.959 158H154.932L152.865 151.201H154.074L155.504 156.258L156.908 151.201ZM165.817 158.143C163.932 158.143 162.632 156.7 162.632 154.607C162.632 152.579 163.919 151.071 165.765 151.071C167.663 151.071 168.664 152.514 168.664 154.399V154.789H163.75C163.815 156.219 164.634 157.129 165.817 157.129C166.727 157.129 167.377 156.635 167.585 155.829L168.612 156.193C168.196 157.402 167.169 158.143 165.817 158.143ZM165.752 152.072C164.764 152.072 164.023 152.735 163.815 153.892H167.481C167.455 152.93 166.935 152.072 165.752 152.072ZM173.844 151.175V152.358C173.649 152.319 173.493 152.306 173.272 152.306C172.284 152.306 171.491 153.086 171.491 154.282V158H170.321V151.201H171.491V152.358C171.79 151.669 172.453 151.149 173.376 151.149C173.558 151.149 173.727 151.162 173.844 151.175ZM177.77 158.143C175.885 158.143 174.585 156.7 174.585 154.607C174.585 152.579 175.872 151.071 177.718 151.071C179.616 151.071 180.617 152.514 180.617 154.399V154.789H175.703C175.768 156.219 176.587 157.129 177.77 157.129C178.68 157.129 179.33 156.635 179.538 155.829L180.565 156.193C180.149 157.402 179.122 158.143 177.77 158.143ZM177.705 152.072C176.717 152.072 175.976 152.735 175.768 153.892H179.434C179.408 152.93 178.888 152.072 177.705 152.072ZM184.769 158.143C182.884 158.143 181.805 156.531 181.805 154.607C181.805 152.67 182.884 151.071 184.769 151.071C185.718 151.071 186.472 151.526 186.875 152.189V148.666H188.045V158H186.875V157.012C186.472 157.688 185.718 158.143 184.769 158.143ZM186.901 154.373C186.901 152.787 185.939 152.098 184.977 152.098C183.703 152.098 182.988 153.138 182.988 154.607C182.988 156.063 183.703 157.116 184.977 157.116C185.939 157.116 186.901 156.414 186.901 154.854V154.373ZM196.397 158.143C195.448 158.143 194.694 157.688 194.291 157.012V158H193.121V148.666H194.291V152.189C194.694 151.526 195.448 151.071 196.397 151.071C198.282 151.071 199.361 152.67 199.361 154.607C199.361 156.531 198.282 158.143 196.397 158.143ZM194.265 154.373V154.854C194.265 156.414 195.227 157.116 196.189 157.116C197.463 157.116 198.178 156.063 198.178 154.607C198.178 153.138 197.463 152.098 196.189 152.098C195.227 152.098 194.265 152.787 194.265 154.373ZM203.41 158.741C203.02 159.768 202.487 160.418 201.304 160.418C201.018 160.418 200.875 160.405 200.667 160.366V159.352C200.888 159.404 201.031 159.417 201.226 159.417C201.733 159.417 202.006 159.235 202.279 158.559L202.604 157.753L200.082 151.201H201.317L203.228 156.401L205.113 151.201H206.335L203.41 158.741Z" fill="#3a3a3a"/>
<path d="M220.837 152.861H215.713V154.381H219.347C219.167 156.513 217.393 157.423 215.719 157.423C213.576 157.423 211.707 155.737 211.707 153.374C211.707 151.073 213.489 149.3 215.723 149.3C217.447 149.3 218.463 150.399 218.463 150.399L219.528 149.297C219.528 149.297 218.161 147.775 215.669 147.775C212.496 147.775 210.04 150.454 210.04 153.347C210.04 156.182 212.35 158.947 215.75 158.947C218.741 158.947 220.93 156.898 220.93 153.869C220.93 153.23 220.837 152.861 220.837 152.861Z" fill="#7e7e7e"/>
<path d="M225.036 151.76C222.933 151.76 221.426 153.404 221.426 155.321C221.426 157.267 222.888 158.941 225.06 158.941C227.027 158.941 228.639 157.438 228.639 155.363C228.639 152.985 226.764 151.76 225.036 151.76ZM225.057 153.17C226.091 153.17 227.071 154.006 227.071 155.353C227.071 156.672 226.095 157.532 225.052 157.532C223.906 157.532 223.002 156.614 223.002 155.343C223.002 154.099 223.895 153.17 225.057 153.17Z" fill="#7e7e7e"/>
<path d="M232.886 151.76C230.784 151.76 229.277 153.404 229.277 155.321C229.277 157.267 230.738 158.941 232.911 158.941C234.878 158.941 236.489 157.438 236.489 155.363C236.489 152.985 234.615 151.76 232.886 151.76ZM232.907 153.17C233.941 153.17 234.921 154.006 234.921 155.353C234.921 156.672 233.945 157.532 232.903 157.532C231.756 157.532 230.852 156.614 230.852 155.343C230.852 154.099 231.745 153.17 232.907 153.17Z" fill="#7e7e7e"/>
<path d="M240.586 151.764C238.656 151.764 237.139 153.454 237.139 155.351C237.139 157.513 238.898 158.946 240.553 158.946C241.576 158.946 242.12 158.54 242.522 158.073V158.781C242.522 160.02 241.77 160.762 240.635 160.762C239.538 160.762 238.988 159.947 238.796 159.484L237.416 160.061C237.906 161.096 238.892 162.175 240.646 162.175C242.565 162.175 244.027 160.967 244.027 158.432V151.979H242.522V152.588C242.059 152.089 241.426 151.764 240.586 151.764ZM240.726 153.171C241.672 153.171 242.644 153.979 242.644 155.359C242.644 156.762 241.674 157.535 240.705 157.535C239.676 157.535 238.718 156.699 238.718 155.372C238.718 153.994 239.713 153.171 240.726 153.171Z" fill="#7e7e7e"/>
<path d="M250.721 151.755C248.9 151.755 247.372 153.204 247.372 155.341C247.372 157.603 249.076 158.944 250.896 158.944C252.415 158.944 253.347 158.113 253.904 157.368L252.663 156.542C252.341 157.042 251.802 157.531 250.903 157.531C249.894 157.531 249.43 156.978 249.142 156.443L253.957 154.445L253.707 153.859C253.242 152.713 252.157 151.755 250.721 151.755ZM250.784 153.136C251.44 153.136 251.912 153.485 252.112 153.903L248.897 155.247C248.758 154.207 249.744 153.136 250.784 153.136Z" fill="#7e7e7e"/>
<path d="M245.076 158.731H246.658V148.147H245.076V158.731Z" fill="#7e7e7e"/>
<rect x="48" y="167" width="382" height="28" fill="#ebebeb"/>
<path d="M65.2 179.096H61.573V180.578H60.13V177.666H66.955V179.109C64.706 181.553 64.121 183.789 64.121 187H62.431C62.431 183.49 63.393 181.085 65.2 179.096ZM72.7379 179.096H69.1109V180.578H67.6679V177.666H74.4929V179.109C72.2439 181.553 71.6589 183.789 71.6589 187H69.9689C69.9689 183.49 70.9309 181.085 72.7379 179.096ZM78.4274 187.143C76.5944 187.143 75.1384 186.155 74.8654 184.283L76.4644 183.984C76.6204 185.115 77.4134 185.765 78.4014 185.765C79.4154 185.765 80.1304 185.219 80.1304 184.257C80.1304 183.308 79.3764 182.892 78.2974 182.892H77.3744V181.488H78.2844C79.2724 181.488 79.8834 181.059 79.8834 180.227C79.8834 179.408 79.3374 178.901 78.4144 178.901C77.4394 178.901 76.7894 179.603 76.6074 180.617L75.1124 180.344C75.3594 178.771 76.5944 177.523 78.4664 177.523C80.3384 177.523 81.4434 178.615 81.4434 180.136C81.4434 181.085 80.8844 181.878 80.1174 182.151C81.0144 182.437 81.7294 183.139 81.7294 184.361C81.7294 185.856 80.4684 187.143 78.4274 187.143ZM84.662 182.814L83.154 182.606L83.57 177.666H88.822V179.122H84.844L84.636 181.41C85.013 181.059 85.598 180.773 86.339 180.773C88.198 180.773 89.381 182.138 89.381 183.919C89.381 185.752 87.951 187.143 86.027 187.143C84.194 187.143 82.868 186.142 82.569 184.335L84.168 184.049C84.324 185.102 85.026 185.765 86.027 185.765C87.041 185.765 87.821 184.998 87.821 183.971C87.821 182.944 87.158 182.125 86.118 182.125C85.442 182.125 84.935 182.437 84.662 182.814ZM98.9105 187H97.3895V184.725H92.9825V183.425L96.8305 177.666H98.9365V183.347H100.653V184.725H98.9105V187ZM94.6465 183.347H97.3635V179.265L94.6465 183.347ZM101.429 182.333C101.429 179.486 102.781 177.523 105.095 177.523C107.409 177.523 108.761 179.486 108.761 182.333C108.761 185.18 107.409 187.143 105.095 187.143C102.781 187.143 101.429 185.18 101.429 182.333ZM103.093 182.333C103.093 184.296 103.717 185.7 105.095 185.7C106.473 185.7 107.097 184.296 107.097 182.333C107.097 180.37 106.473 178.966 105.095 178.966C103.717 178.966 103.093 180.37 103.093 182.333Z" fill="#2b2b2b"/>
<path d="M110.558 185.375V181.202H109.505V180.201H110.558V178.212H111.715V180.201H113.262V181.202H111.715V185.193C111.715 185.908 112.066 186.038 112.664 186.038C112.937 186.038 113.132 186.025 113.405 185.96V186.961C113.106 187.026 112.768 187.065 112.378 187.065C111.221 187.065 110.558 186.675 110.558 185.375ZM114.994 187V177.666H116.164V181.124C116.554 180.565 117.23 180.071 118.192 180.071C119.635 180.071 120.454 181.072 120.454 182.515V187H119.284V182.827C119.284 181.878 118.881 181.163 117.867 181.163C117.022 181.163 116.164 181.813 116.164 182.944V187H114.994ZM128.308 177.666H129.686L133.287 187H132.026L131.077 184.543H126.891L125.955 187H124.707L128.308 177.666ZM128.971 179.07L127.307 183.451H130.661L128.971 179.07ZM137.104 187H135.947L133.399 180.201H134.634L136.545 185.57L138.43 180.201H139.652L137.104 187ZM143.533 187.143C141.648 187.143 140.348 185.7 140.348 183.607C140.348 181.579 141.635 180.071 143.481 180.071C145.379 180.071 146.38 181.514 146.38 183.399V183.789H141.466C141.531 185.219 142.35 186.129 143.533 186.129C144.443 186.129 145.093 185.635 145.301 184.829L146.328 185.193C145.912 186.402 144.885 187.143 143.533 187.143ZM143.468 181.072C142.48 181.072 141.739 181.735 141.531 182.892H145.197C145.171 181.93 144.651 181.072 143.468 181.072ZM148.037 187V180.201H149.207V181.124C149.597 180.565 150.273 180.071 151.235 180.071C152.678 180.071 153.497 181.072 153.497 182.515V187H152.327V182.827C152.327 181.878 151.924 181.163 150.91 181.163C150.065 181.163 149.207 181.813 149.207 182.944V187H148.037ZM160.97 180.201V187H159.8V186.064C159.41 186.636 158.747 187.143 157.785 187.143C156.329 187.143 155.51 186.142 155.51 184.699V180.201H156.68V184.452C156.68 185.414 157.096 186.064 158.097 186.064C158.942 186.064 159.8 185.427 159.8 184.296V180.201H160.97ZM165.83 187.143C163.945 187.143 162.645 185.7 162.645 183.607C162.645 181.579 163.932 180.071 165.778 180.071C167.676 180.071 168.677 181.514 168.677 183.399V183.789H163.763C163.828 185.219 164.647 186.129 165.83 186.129C166.74 186.129 167.39 185.635 167.598 184.829L168.625 185.193C168.209 186.402 167.182 187.143 165.83 187.143ZM165.765 181.072C164.777 181.072 164.036 181.735 163.828 182.892H167.494C167.468 181.93 166.948 181.072 165.765 181.072ZM180.698 177.666V187H179.619L174.523 179.486V187H173.327V177.666H174.64L179.489 184.881V177.666H180.698ZM188.745 183.607C188.745 185.713 187.445 187.143 185.586 187.143C183.727 187.143 182.427 185.713 182.427 183.607C182.427 181.501 183.727 180.071 185.586 180.071C187.445 180.071 188.745 181.501 188.745 183.607ZM183.61 183.607C183.61 185.154 184.39 186.142 185.586 186.142C186.782 186.142 187.562 185.154 187.562 183.607C187.562 182.047 186.782 181.059 185.586 181.059C184.39 181.059 183.61 182.047 183.61 183.607ZM193.956 180.175V181.358C193.761 181.319 193.605 181.306 193.384 181.306C192.396 181.306 191.603 182.086 191.603 183.282V187H190.433V180.201H191.603V181.358C191.902 180.669 192.565 180.149 193.488 180.149C193.67 180.149 193.839 180.162 193.956 180.175ZM195.703 185.375V181.202H194.65V180.201H195.703V178.212H196.86V180.201H198.407V181.202H196.86V185.193C196.86 185.908 197.211 186.038 197.809 186.038C198.082 186.038 198.277 186.025 198.55 185.96V186.961C198.251 187.026 197.913 187.065 197.523 187.065C196.366 187.065 195.703 186.675 195.703 185.375ZM200.139 187V177.666H201.309V181.124C201.699 180.565 202.375 180.071 203.337 180.071C204.78 180.071 205.599 181.072 205.599 182.515V187H204.429V182.827C204.429 181.878 204.026 181.163 203.012 181.163C202.167 181.163 201.309 181.813 201.309 182.944V187H200.139ZM210.394 187.143C208.509 187.143 207.209 185.7 207.209 183.607C207.209 181.579 208.496 180.071 210.342 180.071C212.24 180.071 213.241 181.514 213.241 183.399V183.789H208.327C208.392 185.219 209.211 186.129 210.394 186.129C211.304 186.129 211.954 185.635 212.162 184.829L213.189 185.193C212.773 186.402 211.746 187.143 210.394 187.143ZM210.329 181.072C209.341 181.072 208.6 181.735 208.392 182.892H212.058C212.032 181.93 211.512 181.072 210.329 181.072ZM219.874 185.518C219.874 186.025 219.913 186.571 219.978 187H218.821C218.795 186.805 218.782 186.571 218.769 186.298C218.353 186.792 217.599 187.117 216.715 187.117C215.48 187.117 214.466 186.376 214.466 185.154C214.466 183.802 215.532 183.23 217.053 182.931L218.743 182.593V182.177C218.743 181.423 218.197 181.098 217.365 181.098C216.468 181.098 215.974 181.475 215.883 182.203H214.739C214.843 180.76 215.974 180.071 217.43 180.071C218.938 180.071 219.874 180.76 219.874 182.008V185.518ZM218.743 184.686V183.503L217.365 183.789C216.325 183.997 215.636 184.283 215.636 185.102C215.636 185.765 216.13 186.168 216.871 186.168C217.872 186.168 218.743 185.557 218.743 184.686ZM221.211 185.557L222.121 184.894C222.485 185.687 223.317 186.168 224.201 186.168C224.994 186.168 225.696 185.83 225.696 185.089C225.696 184.348 225.046 184.244 223.928 184.01C222.81 183.763 221.64 183.516 221.64 182.125C221.64 180.916 222.693 180.071 224.136 180.071C225.358 180.071 226.359 180.669 226.762 181.475L225.93 182.138C225.579 181.462 224.942 181.033 224.084 181.033C223.304 181.033 222.784 181.423 222.784 182.034C222.784 182.671 223.382 182.788 224.331 182.996C225.501 183.269 226.84 183.503 226.84 184.985C226.84 186.285 225.657 187.143 224.201 187.143C222.966 187.143 221.731 186.61 221.211 185.557ZM228.67 185.375V181.202H227.617V180.201H228.67V178.212H229.827V180.201H231.374V181.202H229.827V185.193C229.827 185.908 230.178 186.038 230.776 186.038C231.049 186.038 231.244 186.025 231.517 185.96V186.961C231.218 187.026 230.88 187.065 230.49 187.065C229.333 187.065 228.67 186.675 228.67 185.375Z" fill="#3a3a3a"/>
<path d="M235.125 185.076L236.1 184.296C236.685 185.414 237.738 186.064 238.947 186.064C240.156 186.064 241.092 185.466 241.092 184.4C241.092 183.269 240.013 183.074 238.596 182.736C237.127 182.385 235.671 181.982 235.671 180.227C235.671 178.589 237.088 177.523 238.856 177.523C240.481 177.523 241.651 178.303 242.21 179.356L241.261 180.11C240.78 179.213 240.039 178.602 238.83 178.602C237.699 178.602 236.88 179.226 236.88 180.123C236.88 181.111 237.751 181.319 239.064 181.631C240.611 181.995 242.314 182.32 242.314 184.296C242.314 186.038 240.767 187.143 238.921 187.143C237.309 187.143 235.762 186.337 235.125 185.076ZM246.696 187.143C244.811 187.143 243.511 185.7 243.511 183.607C243.511 181.579 244.798 180.071 246.644 180.071C248.542 180.071 249.543 181.514 249.543 183.399V183.789H244.629C244.694 185.219 245.513 186.129 246.696 186.129C247.606 186.129 248.256 185.635 248.464 184.829L249.491 185.193C249.075 186.402 248.048 187.143 246.696 187.143ZM246.631 181.072C245.643 181.072 244.902 181.735 244.694 182.892H248.36C248.334 181.93 247.814 181.072 246.631 181.072ZM256.177 185.518C256.177 186.025 256.216 186.571 256.281 187H255.124C255.098 186.805 255.085 186.571 255.072 186.298C254.656 186.792 253.902 187.117 253.018 187.117C251.783 187.117 250.769 186.376 250.769 185.154C250.769 183.802 251.835 183.23 253.356 182.931L255.046 182.593V182.177C255.046 181.423 254.5 181.098 253.668 181.098C252.771 181.098 252.277 181.475 252.186 182.203H251.042C251.146 180.76 252.277 180.071 253.733 180.071C255.241 180.071 256.177 180.76 256.177 182.008V185.518ZM255.046 184.686V183.503L253.668 183.789C252.628 183.997 251.939 184.283 251.939 185.102C251.939 185.765 252.433 186.168 253.174 186.168C254.175 186.168 255.046 185.557 255.046 184.686ZM258.45 185.375V181.202H257.397V180.201H258.45V178.212H259.607V180.201H261.154V181.202H259.607V185.193C259.607 185.908 259.958 186.038 260.556 186.038C260.829 186.038 261.024 186.025 261.297 185.96V186.961C260.998 187.026 260.66 187.065 260.27 187.065C259.113 187.065 258.45 186.675 258.45 185.375ZM263.068 185.375V181.202H262.015V180.201H263.068V178.212H264.225V180.201H265.772V181.202H264.225V185.193C264.225 185.908 264.576 186.038 265.174 186.038C265.447 186.038 265.642 186.025 265.915 185.96V186.961C265.616 187.026 265.278 187.065 264.888 187.065C263.731 187.065 263.068 186.675 263.068 185.375ZM268.674 177.666V187H267.504V177.666H268.674ZM273.544 187.143C271.659 187.143 270.359 185.7 270.359 183.607C270.359 181.579 271.646 180.071 273.492 180.071C275.39 180.071 276.391 181.514 276.391 183.399V183.789H271.477C271.542 185.219 272.361 186.129 273.544 186.129C274.454 186.129 275.104 185.635 275.312 184.829L276.339 185.193C275.923 186.402 274.896 187.143 273.544 187.143ZM273.479 181.072C272.491 181.072 271.75 181.735 271.542 182.892H275.208C275.182 181.93 274.662 181.072 273.479 181.072ZM277.635 187V185.466H279.117V187.078C279.117 188.092 278.467 188.703 277.427 188.729V188.053C278.012 188.027 278.311 187.728 278.311 187.104V187H277.635ZM288.417 177.666H289.522L291.498 185.141L293.487 177.666H294.722L292.161 187H290.939L288.95 179.733L286.974 187H285.752L283.178 177.666H284.465L286.454 185.141L288.417 177.666ZM298.354 177.666H299.732L303.333 187H302.072L301.123 184.543H296.937L296.001 187H294.753L298.354 177.666ZM299.017 179.07L297.353 183.451H300.707L299.017 179.07ZM304.701 187V185.466H306.183V187.078C306.183 188.092 305.533 188.703 304.493 188.729V188.053C305.078 188.027 305.377 187.728 305.377 187.104V187H304.701ZM314.56 187.13C312.454 187.13 310.894 185.882 310.894 183.308V177.666H312.142V183.269C312.142 185.18 313.156 186.012 314.56 186.012C315.977 186.012 316.991 185.18 316.991 183.269V177.666H318.239V183.308C318.239 185.882 316.679 187.13 314.56 187.13ZM319.353 185.076L320.328 184.296C320.913 185.414 321.966 186.064 323.175 186.064C324.384 186.064 325.32 185.466 325.32 184.4C325.32 183.269 324.241 183.074 322.824 182.736C321.355 182.385 319.899 181.982 319.899 180.227C319.899 178.589 321.316 177.523 323.084 177.523C324.709 177.523 325.879 178.303 326.438 179.356L325.489 180.11C325.008 179.213 324.267 178.602 323.058 178.602C321.927 178.602 321.108 179.226 321.108 180.123C321.108 181.111 321.979 181.319 323.292 181.631C324.839 181.995 326.542 182.32 326.542 184.296C326.542 186.038 324.995 187.143 323.149 187.143C321.537 187.143 319.99 186.337 319.353 185.076ZM330.711 177.666H332.089L335.69 187H334.429L333.48 184.543H329.294L328.358 187H327.11L330.711 177.666ZM331.374 179.07L329.71 183.451H333.064L331.374 179.07Z" fill="#7e7e7e"/>
<path d="M65.2 208.096H61.573V209.578H60.13V206.666H66.955V208.109C64.706 210.553 64.121 212.789 64.121 216H62.431C62.431 212.49 63.393 210.085 65.2 208.096ZM72.7379 208.096H69.1109V209.578H67.6679V206.666H74.4929V208.109C72.2439 210.553 71.6589 212.789 71.6589 216H69.9689C69.9689 212.49 70.9309 210.085 72.7379 208.096ZM78.4274 216.143C76.5944 216.143 75.1384 215.155 74.8654 213.283L76.4644 212.984C76.6204 214.115 77.4134 214.765 78.4014 214.765C79.4154 214.765 80.1304 214.219 80.1304 213.257C80.1304 212.308 79.3764 211.892 78.2974 211.892H77.3744V210.488H78.2844C79.2724 210.488 79.8834 210.059 79.8834 209.227C79.8834 208.408 79.3374 207.901 78.4144 207.901C77.4394 207.901 76.7894 208.603 76.6074 209.617L75.1124 209.344C75.3594 207.771 76.5944 206.523 78.4664 206.523C80.3384 206.523 81.4434 207.615 81.4434 209.136C81.4434 210.085 80.8844 210.878 80.1174 211.151C81.0144 211.437 81.7294 212.139 81.7294 213.361C81.7294 214.856 80.4684 216.143 78.4274 216.143ZM84.662 211.814L83.154 211.606L83.57 206.666H88.822V208.122H84.844L84.636 210.41C85.013 210.059 85.598 209.773 86.339 209.773C88.198 209.773 89.381 211.138 89.381 212.919C89.381 214.752 87.951 216.143 86.027 216.143C84.194 216.143 82.868 215.142 82.569 213.335L84.168 213.049C84.324 214.102 85.026 214.765 86.027 214.765C87.041 214.765 87.821 213.998 87.821 212.971C87.821 211.944 87.158 211.125 86.118 211.125C85.442 211.125 84.935 211.437 84.662 211.814ZM98.9105 216H97.3895V213.725H92.9825V212.425L96.8305 206.666H98.9365V212.347H100.653V213.725H98.9105V216ZM94.6465 212.347H97.3635V208.265L94.6465 212.347ZM101.429 211.333C101.429 208.486 102.781 206.523 105.095 206.523C107.409 206.523 108.761 208.486 108.761 211.333C108.761 214.18 107.409 216.143 105.095 216.143C102.781 216.143 101.429 214.18 101.429 211.333ZM103.093 211.333C103.093 213.296 103.717 214.7 105.095 214.7C106.473 214.7 107.097 213.296 107.097 211.333C107.097 209.37 106.473 207.966 105.095 207.966C103.717 207.966 103.093 209.37 103.093 211.333Z" fill="#2b2b2b"/>
<path d="M110.558 214.375V210.202H109.505V209.201H110.558V207.212H111.715V209.201H113.262V210.202H111.715V214.193C111.715 214.908 112.066 215.038 112.664 215.038C112.937 215.038 113.132 215.025 113.405 214.96V215.961C113.106 216.026 112.768 216.065 112.378 216.065C111.221 216.065 110.558 215.675 110.558 214.375ZM114.994 216V206.666H116.164V210.124C116.554 209.565 117.23 209.071 118.192 209.071C119.635 209.071 120.454 210.072 120.454 211.515V216H119.284V211.827C119.284 210.878 118.881 210.163 117.867 210.163C117.022 210.163 116.164 210.813 116.164 211.944V216H114.994ZM126.774 212.087V216H125.526V206.666H129.088C131.064 206.666 132.325 207.589 132.325 209.37C132.325 211.125 131.064 212.087 129.088 212.087H126.774ZM126.774 211.008H129.023C130.349 211.008 131.09 210.423 131.09 209.37C131.09 208.317 130.349 207.745 129.023 207.745H126.774V211.008ZM134.829 206.666V216H133.659V206.666H134.829ZM141.883 214.518C141.883 215.025 141.922 215.571 141.987 216H140.83C140.804 215.805 140.791 215.571 140.778 215.298C140.362 215.792 139.608 216.117 138.724 216.117C137.489 216.117 136.475 215.376 136.475 214.154C136.475 212.802 137.541 212.23 139.062 211.931L140.752 211.593V211.177C140.752 210.423 140.206 210.098 139.374 210.098C138.477 210.098 137.983 210.475 137.892 211.203H136.748C136.852 209.76 137.983 209.071 139.439 209.071C140.947 209.071 141.883 209.76 141.883 211.008V214.518ZM140.752 213.686V212.503L139.374 212.789C138.334 212.997 137.645 213.283 137.645 214.102C137.645 214.765 138.139 215.168 138.88 215.168C139.881 215.168 140.752 214.557 140.752 213.686ZM144.676 212.607C144.676 214.154 145.508 215.116 146.717 215.116C147.653 215.116 148.212 214.518 148.407 213.673L149.447 214.154C149.122 215.285 148.134 216.143 146.717 216.143C144.819 216.143 143.506 214.7 143.506 212.607C143.506 210.501 144.819 209.071 146.717 209.071C148.134 209.071 149.096 209.89 149.421 211.021L148.407 211.528C148.212 210.696 147.653 210.085 146.717 210.085C145.508 210.085 144.676 211.047 144.676 212.607ZM153.645 216.143C151.76 216.143 150.46 214.7 150.46 212.607C150.46 210.579 151.747 209.071 153.593 209.071C155.491 209.071 156.492 210.514 156.492 212.399V212.789H151.578C151.643 214.219 152.462 215.129 153.645 215.129C154.555 215.129 155.205 214.635 155.413 213.829L156.44 214.193C156.024 215.402 154.997 216.143 153.645 216.143ZM153.58 210.072C152.592 210.072 151.851 210.735 151.643 211.892H155.309C155.283 210.93 154.763 210.072 153.58 210.072ZM158.002 212.737V211.684H161.551V212.737H158.002ZM167.213 206.666H168.318L170.294 214.141L172.283 206.666H173.518L170.957 216H169.735L167.746 208.733L165.77 216H164.548L161.974 206.666H163.261L165.25 214.141L167.213 206.666ZM177.071 216.143C175.186 216.143 173.886 214.7 173.886 212.607C173.886 210.579 175.173 209.071 177.019 209.071C178.917 209.071 179.918 210.514 179.918 212.399V212.789H175.004C175.069 214.219 175.888 215.129 177.071 215.129C177.981 215.129 178.631 214.635 178.839 213.829L179.866 214.193C179.45 215.402 178.423 216.143 177.071 216.143ZM177.006 210.072C176.018 210.072 175.277 210.735 175.069 211.892H178.735C178.709 210.93 178.189 210.072 177.006 210.072ZM180.821 214.557L181.731 213.894C182.095 214.687 182.927 215.168 183.811 215.168C184.604 215.168 185.306 214.83 185.306 214.089C185.306 213.348 184.656 213.244 183.538 213.01C182.42 212.763 181.25 212.516 181.25 211.125C181.25 209.916 182.303 209.071 183.746 209.071C184.968 209.071 185.969 209.669 186.372 210.475L185.54 211.138C185.189 210.462 184.552 210.033 183.694 210.033C182.914 210.033 182.394 210.423 182.394 211.034C182.394 211.671 182.992 211.788 183.941 211.996C185.111 212.269 186.45 212.503 186.45 213.985C186.45 215.285 185.267 216.143 183.811 216.143C182.576 216.143 181.341 215.61 180.821 214.557ZM188.279 214.375V210.202H187.226V209.201H188.279V207.212H189.436V209.201H190.983V210.202H189.436V214.193C189.436 214.908 189.787 215.038 190.385 215.038C190.658 215.038 190.853 215.025 191.126 214.96V215.961C190.827 216.026 190.489 216.065 190.099 216.065C188.942 216.065 188.279 215.675 188.279 214.375Z" fill="#3a3a3a"/>
<path d="M200.727 216H199.726L196.879 208.317V216H195.709V206.666H197.412L200.246 214.336L203.093 206.666H204.744V216H203.587V208.317L200.727 216ZM212.803 212.607C212.803 214.713 211.503 216.143 209.644 216.143C207.785 216.143 206.485 214.713 206.485 212.607C206.485 210.501 207.785 209.071 209.644 209.071C211.503 209.071 212.803 210.501 212.803 212.607ZM207.668 212.607C207.668 214.154 208.448 215.142 209.644 215.142C210.84 215.142 211.62 214.154 211.62 212.607C211.62 211.047 210.84 210.059 209.644 210.059C208.448 210.059 207.668 211.047 207.668 212.607ZM219.886 209.201V216H218.716V215.064C218.326 215.636 217.663 216.143 216.701 216.143C215.245 216.143 214.426 215.142 214.426 213.699V209.201H215.596V213.452C215.596 214.414 216.012 215.064 217.013 215.064C217.858 215.064 218.716 214.427 218.716 213.296V209.201H219.886ZM222.029 216V209.201H223.199V210.124C223.589 209.565 224.265 209.071 225.227 209.071C226.67 209.071 227.489 210.072 227.489 211.515V216H226.319V211.827C226.319 210.878 225.916 210.163 224.902 210.163C224.057 210.163 223.199 210.813 223.199 211.944V216H222.029ZM229.749 214.375V210.202H228.696V209.201H229.749V207.212H230.906V209.201H232.453V210.202H230.906V214.193C230.906 214.908 231.257 215.038 231.855 215.038C232.128 215.038 232.323 215.025 232.596 214.96V215.961C232.297 216.026 231.959 216.065 231.569 216.065C230.412 216.065 229.749 215.675 229.749 214.375ZM235.355 206.666V216H234.185V206.666H235.355ZM242.409 214.518C242.409 215.025 242.448 215.571 242.513 216H241.356C241.33 215.805 241.317 215.571 241.304 215.298C240.888 215.792 240.134 216.117 239.25 216.117C238.015 216.117 237.001 215.376 237.001 214.154C237.001 212.802 238.067 212.23 239.588 211.931L241.278 211.593V211.177C241.278 210.423 240.732 210.098 239.9 210.098C239.003 210.098 238.509 210.475 238.418 211.203H237.274C237.378 209.76 238.509 209.071 239.965 209.071C241.473 209.071 242.409 209.76 242.409 211.008V214.518ZM241.278 213.686V212.503L239.9 212.789C238.86 212.997 238.171 213.283 238.171 214.102C238.171 214.765 238.665 215.168 239.406 215.168C240.407 215.168 241.278 214.557 241.278 213.686ZM245.67 206.666V212.373L248.686 209.201H250.142L247.49 211.879L250.363 216H248.998L246.658 212.724L245.67 213.725V216H244.5V206.666H245.67ZM254.082 216.143C252.197 216.143 250.897 214.7 250.897 212.607C250.897 210.579 252.184 209.071 254.03 209.071C255.928 209.071 256.929 210.514 256.929 212.399V212.789H252.015C252.08 214.219 252.899 215.129 254.082 215.129C254.992 215.129 255.642 214.635 255.85 213.829L256.877 214.193C256.461 215.402 255.434 216.143 254.082 216.143ZM254.017 210.072C253.029 210.072 252.288 210.735 252.08 211.892H255.746C255.72 210.93 255.2 210.072 254.017 210.072ZM268.34 207.758H265.181V216H263.933V207.758H260.774V206.666H268.34V207.758ZM271.008 216.143C269.123 216.143 267.823 214.7 267.823 212.607C267.823 210.579 269.11 209.071 270.956 209.071C272.854 209.071 273.855 210.514 273.855 212.399V212.789H268.941C269.006 214.219 269.825 215.129 271.008 215.129C271.918 215.129 272.568 214.635 272.776 213.829L273.803 214.193C273.387 215.402 272.36 216.143 271.008 216.143ZM270.943 210.072C269.955 210.072 269.214 210.735 269.006 211.892H272.672C272.646 210.93 272.126 210.072 270.943 210.072ZM279.035 209.175V210.358C278.84 210.319 278.684 210.306 278.463 210.306C277.475 210.306 276.682 211.086 276.682 212.282V216H275.512V209.201H276.682V210.358C276.981 209.669 277.644 209.149 278.567 209.149C278.749 209.149 278.918 209.162 279.035 209.175ZM284.046 209.175V210.358C283.851 210.319 283.695 210.306 283.474 210.306C282.486 210.306 281.693 211.086 281.693 212.282V216H280.523V209.201H281.693V210.358C281.992 209.669 282.655 209.149 283.578 209.149C283.76 209.149 283.929 209.162 284.046 209.175ZM290.296 214.518C290.296 215.025 290.335 215.571 290.4 216H289.243C289.217 215.805 289.204 215.571 289.191 215.298C288.775 215.792 288.021 216.117 287.137 216.117C285.902 216.117 284.888 215.376 284.888 214.154C284.888 212.802 285.954 212.23 287.475 211.931L289.165 211.593V211.177C289.165 210.423 288.619 210.098 287.787 210.098C286.89 210.098 286.396 210.475 286.305 211.203H285.161C285.265 209.76 286.396 209.071 287.852 209.071C289.36 209.071 290.296 209.76 290.296 211.008V214.518ZM289.165 213.686V212.503L287.787 212.789C286.747 212.997 286.058 213.283 286.058 214.102C286.058 214.765 286.552 215.168 287.293 215.168C288.294 215.168 289.165 214.557 289.165 213.686ZM293.089 212.607C293.089 214.154 293.921 215.116 295.13 215.116C296.066 215.116 296.625 214.518 296.82 213.673L297.86 214.154C297.535 215.285 296.547 216.143 295.13 216.143C293.232 216.143 291.919 214.7 291.919 212.607C291.919 210.501 293.232 209.071 295.13 209.071C296.547 209.071 297.509 209.89 297.834 211.021L296.82 211.528C296.625 210.696 296.066 210.085 295.13 210.085C293.921 210.085 293.089 211.047 293.089 212.607ZM302.058 216.143C300.173 216.143 298.873 214.7 298.873 212.607C298.873 210.579 300.16 209.071 302.006 209.071C303.904 209.071 304.905 210.514 304.905 212.399V212.789H299.991C300.056 214.219 300.875 215.129 302.058 215.129C302.968 215.129 303.618 214.635 303.826 213.829L304.853 214.193C304.437 215.402 303.41 216.143 302.058 216.143ZM301.993 210.072C301.005 210.072 300.264 210.735 300.056 211.892H303.722C303.696 210.93 303.176 210.072 301.993 210.072ZM306.149 216V214.466H307.631V216.078C307.631 217.092 306.981 217.703 305.941 217.729V217.053C306.526 217.027 306.825 216.728 306.825 216.104V216H306.149ZM316.93 206.666H318.035L320.011 214.141L322 206.666H323.235L320.674 216H319.452L317.463 208.733L315.487 216H314.265L311.691 206.666H312.978L314.967 214.141L316.93 206.666ZM326.867 206.666H328.245L331.846 216H330.585L329.636 213.543H325.45L324.514 216H323.266L326.867 206.666ZM327.53 208.07L325.866 212.451H329.22L327.53 208.07ZM333.215 216V214.466H334.697V216.078C334.697 217.092 334.047 217.703 333.007 217.729V217.053C333.592 217.027 333.891 216.728 333.891 216.104V216H333.215ZM343.074 216.13C340.968 216.13 339.408 214.882 339.408 212.308V206.666H340.656V212.269C340.656 214.18 341.67 215.012 343.074 215.012C344.491 215.012 345.505 214.18 345.505 212.269V206.666H346.753V212.308C346.753 214.882 345.193 216.13 343.074 216.13ZM347.866 214.076L348.841 213.296C349.426 214.414 350.479 215.064 351.688 215.064C352.897 215.064 353.833 214.466 353.833 213.4C353.833 212.269 352.754 212.074 351.337 211.736C349.868 211.385 348.412 210.982 348.412 209.227C348.412 207.589 349.829 206.523 351.597 206.523C353.222 206.523 354.392 207.303 354.951 208.356L354.002 209.11C353.521 208.213 352.78 207.602 351.571 207.602C350.44 207.602 349.621 208.226 349.621 209.123C349.621 210.111 350.492 210.319 351.805 210.631C353.352 210.995 355.055 211.32 355.055 213.296C355.055 215.038 353.508 216.143 351.662 216.143C350.05 216.143 348.503 215.337 347.866 214.076ZM359.225 206.666H360.603L364.204 216H362.943L361.994 213.543H357.808L356.872 216H355.624L359.225 206.666ZM359.888 208.07L358.224 212.451H361.578L359.888 208.07Z" fill="#7e7e7e"/>
<path d="M65.2 237.096H61.573V238.578H60.13V235.666H66.955V237.109C64.706 239.553 64.121 241.789 64.121 245H62.431C62.431 241.49 63.393 239.085 65.2 237.096ZM72.7379 237.096H69.1109V238.578H67.6679V235.666H74.4929V237.109C72.2439 239.553 71.6589 241.789 71.6589 245H69.9689C69.9689 241.49 70.9309 239.085 72.7379 237.096ZM78.4274 245.143C76.5944 245.143 75.1384 244.155 74.8654 242.283L76.4644 241.984C76.6204 243.115 77.4134 243.765 78.4014 243.765C79.4154 243.765 80.1304 243.219 80.1304 242.257C80.1304 241.308 79.3764 240.892 78.2974 240.892H77.3744V239.488H78.2844C79.2724 239.488 79.8834 239.059 79.8834 238.227C79.8834 237.408 79.3374 236.901 78.4144 236.901C77.4394 236.901 76.7894 237.603 76.6074 238.617L75.1124 238.344C75.3594 236.771 76.5944 235.523 78.4664 235.523C80.3384 235.523 81.4434 236.615 81.4434 238.136C81.4434 239.085 80.8844 239.878 80.1174 240.151C81.0144 240.437 81.7294 241.139 81.7294 242.361C81.7294 243.856 80.4684 245.143 78.4274 245.143ZM84.662 240.814L83.154 240.606L83.57 235.666H88.822V237.122H84.844L84.636 239.41C85.013 239.059 85.598 238.773 86.339 238.773C88.198 238.773 89.381 240.138 89.381 241.919C89.381 243.752 87.951 245.143 86.027 245.143C84.194 245.143 82.868 244.142 82.569 242.335L84.168 242.049C84.324 243.102 85.026 243.765 86.027 243.765C87.041 243.765 87.821 242.998 87.821 241.971C87.821 240.944 87.158 240.125 86.118 240.125C85.442 240.125 84.935 240.437 84.662 240.814ZM98.9105 245H97.3895V242.725H92.9825V241.425L96.8305 235.666H98.9365V241.347H100.653V242.725H98.9105V245ZM94.6465 241.347H97.3635V237.265L94.6465 241.347ZM101.429 240.333C101.429 237.486 102.781 235.523 105.095 235.523C107.409 235.523 108.761 237.486 108.761 240.333C108.761 243.18 107.409 245.143 105.095 245.143C102.781 245.143 101.429 243.18 101.429 240.333ZM103.093 240.333C103.093 242.296 103.717 243.7 105.095 243.7C106.473 243.7 107.097 242.296 107.097 240.333C107.097 238.37 106.473 236.966 105.095 236.966C103.717 236.966 103.093 238.37 103.093 240.333Z" fill="#2b2b2b"/>
<path d="M110.558 243.375V239.202H109.505V238.201H110.558V236.212H111.715V238.201H113.262V239.202H111.715V243.193C111.715 243.908 112.066 244.038 112.664 244.038C112.937 244.038 113.132 244.025 113.405 243.96V244.961C113.106 245.026 112.768 245.065 112.378 245.065C111.221 245.065 110.558 244.675 110.558 243.375ZM114.994 245V235.666H116.164V239.124C116.554 238.565 117.23 238.071 118.192 238.071C119.635 238.071 120.454 239.072 120.454 240.515V245H119.284V240.827C119.284 239.878 118.881 239.163 117.867 239.163C117.022 239.163 116.164 239.813 116.164 240.944V245H114.994ZM126.774 241.087V245H125.526V235.666H129.088C131.064 235.666 132.325 236.589 132.325 238.37C132.325 240.125 131.064 241.087 129.088 241.087H126.774ZM126.774 240.008H129.023C130.349 240.008 131.09 239.423 131.09 238.37C131.09 237.317 130.349 236.745 129.023 236.745H126.774V240.008ZM134.829 235.666V245H133.659V235.666H134.829ZM141.883 243.518C141.883 244.025 141.922 244.571 141.987 245H140.83C140.804 244.805 140.791 244.571 140.778 244.298C140.362 244.792 139.608 245.117 138.724 245.117C137.489 245.117 136.475 244.376 136.475 243.154C136.475 241.802 137.541 241.23 139.062 240.931L140.752 240.593V240.177C140.752 239.423 140.206 239.098 139.374 239.098C138.477 239.098 137.983 239.475 137.892 240.203H136.748C136.852 238.76 137.983 238.071 139.439 238.071C140.947 238.071 141.883 238.76 141.883 240.008V243.518ZM140.752 242.686V241.503L139.374 241.789C138.334 241.997 137.645 242.283 137.645 243.102C137.645 243.765 138.139 244.168 138.88 244.168C139.881 244.168 140.752 243.557 140.752 242.686ZM144.676 241.607C144.676 243.154 145.508 244.116 146.717 244.116C147.653 244.116 148.212 243.518 148.407 242.673L149.447 243.154C149.122 244.285 148.134 245.143 146.717 245.143C144.819 245.143 143.506 243.7 143.506 241.607C143.506 239.501 144.819 238.071 146.717 238.071C148.134 238.071 149.096 238.89 149.421 240.021L148.407 240.528C148.212 239.696 147.653 239.085 146.717 239.085C145.508 239.085 144.676 240.047 144.676 241.607ZM153.645 245.143C151.76 245.143 150.46 243.7 150.46 241.607C150.46 239.579 151.747 238.071 153.593 238.071C155.491 238.071 156.492 239.514 156.492 241.399V241.789H151.578C151.643 243.219 152.462 244.129 153.645 244.129C154.555 244.129 155.205 243.635 155.413 242.829L156.44 243.193C156.024 244.402 154.997 245.143 153.645 245.143ZM153.58 239.072C152.592 239.072 151.851 239.735 151.643 240.892H155.309C155.283 239.93 154.763 239.072 153.58 239.072ZM168.514 235.666V245H167.435L162.339 237.486V245H161.143V235.666H162.456L167.305 242.881V235.666H168.514ZM176.561 241.607C176.561 243.713 175.261 245.143 173.402 245.143C171.543 245.143 170.243 243.713 170.243 241.607C170.243 239.501 171.543 238.071 173.402 238.071C175.261 238.071 176.561 239.501 176.561 241.607ZM171.426 241.607C171.426 243.154 172.206 244.142 173.402 244.142C174.598 244.142 175.378 243.154 175.378 241.607C175.378 240.047 174.598 239.059 173.402 239.059C172.206 239.059 171.426 240.047 171.426 241.607ZM181.772 238.175V239.358C181.577 239.319 181.421 239.306 181.2 239.306C180.212 239.306 179.419 240.086 179.419 241.282V245H178.249V238.201H179.419V239.358C179.718 238.669 180.381 238.149 181.304 238.149C181.486 238.149 181.655 238.162 181.772 238.175ZM183.519 243.375V239.202H182.466V238.201H183.519V236.212H184.676V238.201H186.223V239.202H184.676V243.193C184.676 243.908 185.027 244.038 185.625 244.038C185.898 244.038 186.093 244.025 186.366 243.96V244.961C186.067 245.026 185.729 245.065 185.339 245.065C184.182 245.065 183.519 244.675 183.519 243.375ZM187.954 245V235.666H189.124V239.124C189.514 238.565 190.19 238.071 191.152 238.071C192.595 238.071 193.414 239.072 193.414 240.515V245H192.244V240.827C192.244 239.878 191.841 239.163 190.827 239.163C189.982 239.163 189.124 239.813 189.124 240.944V245H187.954ZM198.209 245.143C196.324 245.143 195.024 243.7 195.024 241.607C195.024 239.579 196.311 238.071 198.157 238.071C200.055 238.071 201.056 239.514 201.056 241.399V241.789H196.142C196.207 243.219 197.026 244.129 198.209 244.129C199.119 244.129 199.769 243.635 199.977 242.829L201.004 243.193C200.588 244.402 199.561 245.143 198.209 245.143ZM198.144 239.072C197.156 239.072 196.415 239.735 196.207 240.892H199.873C199.847 239.93 199.327 239.072 198.144 239.072ZM207.69 243.518C207.69 244.025 207.729 244.571 207.794 245H206.637C206.611 244.805 206.598 244.571 206.585 244.298C206.169 244.792 205.415 245.117 204.531 245.117C203.296 245.117 202.282 244.376 202.282 243.154C202.282 241.802 203.348 241.23 204.869 240.931L206.559 240.593V240.177C206.559 239.423 206.013 239.098 205.181 239.098C204.284 239.098 203.79 239.475 203.699 240.203H202.555C202.659 238.76 203.79 238.071 205.246 238.071C206.754 238.071 207.69 238.76 207.69 240.008V243.518ZM206.559 242.686V241.503L205.181 241.789C204.141 241.997 203.452 242.283 203.452 243.102C203.452 243.765 203.946 244.168 204.687 244.168C205.688 244.168 206.559 243.557 206.559 242.686ZM209.027 243.557L209.937 242.894C210.301 243.687 211.133 244.168 212.017 244.168C212.81 244.168 213.512 243.83 213.512 243.089C213.512 242.348 212.862 242.244 211.744 242.01C210.626 241.763 209.456 241.516 209.456 240.125C209.456 238.916 210.509 238.071 211.952 238.071C213.174 238.071 214.175 238.669 214.578 239.475L213.746 240.138C213.395 239.462 212.758 239.033 211.9 239.033C211.12 239.033 210.6 239.423 210.6 240.034C210.6 240.671 211.198 240.788 212.147 240.996C213.317 241.269 214.656 241.503 214.656 242.985C214.656 244.285 213.473 245.143 212.017 245.143C210.782 245.143 209.547 244.61 209.027 243.557ZM216.485 243.375V239.202H215.432V238.201H216.485V236.212H217.642V238.201H219.189V239.202H217.642V243.193C217.642 243.908 217.993 244.038 218.591 244.038C218.864 244.038 219.059 244.025 219.332 243.96V244.961C219.033 245.026 218.695 245.065 218.305 245.065C217.148 245.065 216.485 244.675 216.485 243.375Z" fill="#3a3a3a"/>
<path d="M223.915 245V235.666H225.163V243.908H229.817V245H223.915ZM236.188 243.518C236.188 244.025 236.227 244.571 236.292 245H235.135C235.109 244.805 235.096 244.571 235.083 244.298C234.667 244.792 233.913 245.117 233.029 245.117C231.794 245.117 230.78 244.376 230.78 243.154C230.78 241.802 231.846 241.23 233.367 240.931L235.057 240.593V240.177C235.057 239.423 234.511 239.098 233.679 239.098C232.782 239.098 232.288 239.475 232.197 240.203H231.053C231.157 238.76 232.288 238.071 233.744 238.071C235.252 238.071 236.188 238.76 236.188 240.008V243.518ZM235.057 242.686V241.503L233.679 241.789C232.639 241.997 231.95 242.283 231.95 243.102C231.95 243.765 232.444 244.168 233.185 244.168C234.186 244.168 235.057 243.557 235.057 242.686ZM239.449 235.666V241.373L242.465 238.201H243.921L241.269 240.879L244.142 245H242.777L240.437 241.724L239.449 242.725V245H238.279V235.666H239.449ZM247.861 245.143C245.976 245.143 244.676 243.7 244.676 241.607C244.676 239.579 245.963 238.071 247.809 238.071C249.707 238.071 250.708 239.514 250.708 241.399V241.789H245.794C245.859 243.219 246.678 244.129 247.861 244.129C248.771 244.129 249.421 243.635 249.629 242.829L250.656 243.193C250.24 244.402 249.213 245.143 247.861 245.143ZM247.796 239.072C246.808 239.072 246.067 239.735 245.859 240.892H249.525C249.499 239.93 248.979 239.072 247.796 239.072ZM256.594 245H255.359V235.666H261.391V236.758H256.594V239.761H260.65V240.853H256.594V245ZM268.263 241.607C268.263 243.713 266.963 245.143 265.104 245.143C263.245 245.143 261.945 243.713 261.945 241.607C261.945 239.501 263.245 238.071 265.104 238.071C266.963 238.071 268.263 239.501 268.263 241.607ZM263.128 241.607C263.128 243.154 263.908 244.142 265.104 244.142C266.3 244.142 267.08 243.154 267.08 241.607C267.08 240.047 266.3 239.059 265.104 239.059C263.908 239.059 263.128 240.047 263.128 241.607ZM273.474 238.175V239.358C273.279 239.319 273.123 239.306 272.902 239.306C271.914 239.306 271.121 240.086 271.121 241.282V245H269.951V238.201H271.121V239.358C271.42 238.669 272.083 238.149 273.006 238.149C273.188 238.149 273.357 238.162 273.474 238.175ZM277.4 245.143C275.515 245.143 274.215 243.7 274.215 241.607C274.215 239.579 275.502 238.071 277.348 238.071C279.246 238.071 280.247 239.514 280.247 241.399V241.789H275.333C275.398 243.219 276.217 244.129 277.4 244.129C278.31 244.129 278.96 243.635 279.168 242.829L280.195 243.193C279.779 244.402 278.752 245.143 277.4 245.143ZM277.335 239.072C276.347 239.072 275.606 239.735 275.398 240.892H279.064C279.038 239.93 278.518 239.072 277.335 239.072ZM281.15 243.557L282.06 242.894C282.424 243.687 283.256 244.168 284.14 244.168C284.933 244.168 285.635 243.83 285.635 243.089C285.635 242.348 284.985 242.244 283.867 242.01C282.749 241.763 281.579 241.516 281.579 240.125C281.579 238.916 282.632 238.071 284.075 238.071C285.297 238.071 286.298 238.669 286.701 239.475L285.869 240.138C285.518 239.462 284.881 239.033 284.023 239.033C283.243 239.033 282.723 239.423 282.723 240.034C282.723 240.671 283.321 240.788 284.27 240.996C285.44 241.269 286.779 241.503 286.779 242.985C286.779 244.285 285.596 245.143 284.14 245.143C282.905 245.143 281.67 244.61 281.15 243.557ZM288.608 243.375V239.202H287.555V238.201H288.608V236.212H289.765V238.201H291.312V239.202H289.765V243.193C289.765 243.908 290.116 244.038 290.714 244.038C290.987 244.038 291.182 244.025 291.455 243.96V244.961C291.156 245.026 290.818 245.065 290.428 245.065C289.271 245.065 288.608 244.675 288.608 243.375ZM292.936 245V243.466H294.418V245.078C294.418 246.092 293.768 246.703 292.728 246.729V246.053C293.313 246.027 293.612 245.728 293.612 245.104V245H292.936ZM303.718 235.666H304.823L306.799 243.141L308.788 235.666H310.023L307.462 245H306.24L304.251 237.733L302.275 245H301.053L298.479 235.666H299.766L301.755 243.141L303.718 235.666ZM313.655 235.666H315.033L318.634 245H317.373L316.424 242.543H312.238L311.302 245H310.054L313.655 235.666ZM314.318 237.07L312.654 241.451H316.008L314.318 237.07ZM320.003 245V243.466H321.485V245.078C321.485 246.092 320.835 246.703 319.795 246.729V246.053C320.38 246.027 320.679 245.728 320.679 245.104V245H320.003ZM329.861 245.13C327.755 245.13 326.195 243.882 326.195 241.308V235.666H327.443V241.269C327.443 243.18 328.457 244.012 329.861 244.012C331.278 244.012 332.292 243.18 332.292 241.269V235.666H333.54V241.308C333.54 243.882 331.98 245.13 329.861 245.13ZM334.654 243.076L335.629 242.296C336.214 243.414 337.267 244.064 338.476 244.064C339.685 244.064 340.621 243.466 340.621 242.4C340.621 241.269 339.542 241.074 338.125 240.736C336.656 240.385 335.2 239.982 335.2 238.227C335.2 236.589 336.617 235.523 338.385 235.523C340.01 235.523 341.18 236.303 341.739 237.356L340.79 238.11C340.309 237.213 339.568 236.602 338.359 236.602C337.228 236.602 336.409 237.226 336.409 238.123C336.409 239.111 337.28 239.319 338.593 239.631C340.14 239.995 341.843 240.32 341.843 242.296C341.843 244.038 340.296 245.143 338.45 245.143C336.838 245.143 335.291 244.337 334.654 243.076ZM346.012 235.666H347.39L350.991 245H349.73L348.781 242.543H344.595L343.659 245H342.411L346.012 235.666ZM346.675 237.07L345.011 241.451H348.365L346.675 237.07Z" fill="#7e7e7e"/>
<rect x="48.5" y="53.5" width="381" height="254" rx="7.5" stroke="#ebebeb"/>
<path d="M60.351 78.974V77.856C60.806 77.947 61.118 77.986 61.534 77.986C62.691 77.986 63.276 77.583 63.276 76.309V69.666H64.524V76.4C64.524 78.272 63.484 79.104 61.677 79.104C61.183 79.104 60.793 79.065 60.351 78.974ZM71.4588 77.518C71.4588 78.025 71.4978 78.571 71.5628 79H70.4058C70.3798 78.805 70.3668 78.571 70.3538 78.298C69.9378 78.792 69.1838 79.117 68.2998 79.117C67.0648 79.117 66.0508 78.376 66.0508 77.154C66.0508 75.802 67.1168 75.23 68.6378 74.931L70.3278 74.593V74.177C70.3278 73.423 69.7818 73.098 68.9498 73.098C68.0528 73.098 67.5588 73.475 67.4678 74.203H66.3238C66.4278 72.76 67.5588 72.071 69.0148 72.071C70.5228 72.071 71.4588 72.76 71.4588 74.008V77.518ZM70.3278 76.686V75.503L68.9498 75.789C67.9098 75.997 67.2208 76.283 67.2208 77.102C67.2208 77.765 67.7148 78.168 68.4558 78.168C69.4568 78.168 70.3278 77.557 70.3278 76.686ZM73.5498 79V72.201H74.7198V73.124C75.1098 72.565 75.7858 72.071 76.7478 72.071C78.1908 72.071 79.0098 73.072 79.0098 74.515V79H77.8398V74.827C77.8398 73.878 77.4368 73.163 76.4228 73.163C75.5778 73.163 74.7198 73.813 74.7198 74.944V79H73.5498ZM83.8047 79.143C81.9197 79.143 80.6197 77.7 80.6197 75.607C80.6197 73.579 81.9067 72.071 83.7527 72.071C85.6507 72.071 86.6517 73.514 86.6517 75.399V75.789H81.7377C81.8027 77.219 82.6217 78.129 83.8047 78.129C84.7147 78.129 85.3647 77.635 85.5727 76.829L86.5997 77.193C86.1837 78.402 85.1567 79.143 83.8047 79.143ZM83.7397 73.072C82.7517 73.072 82.0107 73.735 81.8027 74.892H85.4687C85.4427 73.93 84.9227 73.072 83.7397 73.072ZM91.3024 79V69.666H94.2664C97.1004 69.666 98.8944 71.486 98.8944 74.333C98.8944 77.18 97.1004 79 94.2664 79H91.3024ZM92.5244 77.921H94.2664C96.3854 77.921 97.6724 76.504 97.6724 74.333C97.6724 72.149 96.3854 70.745 94.2534 70.745H92.5244V77.921ZM100.514 71.018V69.666H101.788V71.018H100.514ZM101.736 72.201V79H100.566V72.201H101.736ZM108.79 77.518C108.79 78.025 108.829 78.571 108.894 79H107.737C107.711 78.805 107.698 78.571 107.685 78.298C107.269 78.792 106.515 79.117 105.631 79.117C104.396 79.117 103.382 78.376 103.382 77.154C103.382 75.802 104.448 75.23 105.969 74.931L107.659 74.593V74.177C107.659 73.423 107.113 73.098 106.281 73.098C105.384 73.098 104.89 73.475 104.799 74.203H103.655C103.759 72.76 104.89 72.071 106.346 72.071C107.854 72.071 108.79 72.76 108.79 74.008V77.518ZM107.659 76.686V75.503L106.281 75.789C105.241 75.997 104.552 76.283 104.552 77.102C104.552 77.765 105.046 78.168 105.787 78.168C106.788 78.168 107.659 77.557 107.659 76.686ZM115.795 77.999V79H110.439V78.116L114.365 73.202H110.491V72.201H115.756V73.098L111.908 77.999H115.795Z" fill="#3a3a3a"/>
<path d="M61.729 275.333C61.729 277.543 62.951 279.038 64.68 279.038C65.889 279.038 66.76 278.336 67.098 277.153L68.281 277.543C67.735 279.155 66.461 280.143 64.68 280.143C62.262 280.143 60.481 278.18 60.481 275.333C60.481 272.486 62.262 270.523 64.68 270.523C66.461 270.523 67.735 271.511 68.281 273.123L67.098 273.513C66.76 272.33 65.889 271.628 64.68 271.628C62.951 271.628 61.729 273.123 61.729 275.333ZM75.5943 276.607C75.5943 278.713 74.2943 280.143 72.4353 280.143C70.5763 280.143 69.2763 278.713 69.2763 276.607C69.2763 274.501 70.5763 273.071 72.4353 273.071C74.2943 273.071 75.5943 274.501 75.5943 276.607ZM70.4593 276.607C70.4593 278.154 71.2393 279.142 72.4353 279.142C73.6313 279.142 74.4113 278.154 74.4113 276.607C74.4113 275.047 73.6313 274.059 72.4353 274.059C71.2393 274.059 70.4593 275.047 70.4593 276.607ZM82.6772 273.201V280H81.5072V279.064C81.1172 279.636 80.4542 280.143 79.4922 280.143C78.0362 280.143 77.2172 279.142 77.2172 277.699V273.201H78.3872V277.452C78.3872 278.414 78.8032 279.064 79.8042 279.064C80.6492 279.064 81.5072 278.427 81.5072 277.296V273.201H82.6772ZM84.8201 280V273.201H85.9901V274.124C86.3801 273.565 87.0561 273.071 88.0181 273.071C89.4611 273.071 90.2801 274.072 90.2801 275.515V280H89.1101V275.827C89.1101 274.878 88.7071 274.163 87.6931 274.163C86.8481 274.163 85.9901 274.813 85.9901 275.944V280H84.8201ZM92.54 278.375V274.202H91.487V273.201H92.54V271.212H93.697V273.201H95.244V274.202H93.697V278.193C93.697 278.908 94.048 279.038 94.646 279.038C94.919 279.038 95.114 279.025 95.387 278.96V279.961C95.088 280.026 94.75 280.065 94.36 280.065C93.203 280.065 92.54 279.675 92.54 278.375ZM100.499 273.175V274.358C100.304 274.319 100.148 274.306 99.927 274.306C98.939 274.306 98.146 275.086 98.146 276.282V280H96.976V273.201H98.146V274.358C98.445 273.669 99.108 273.149 100.031 273.149C100.213 273.149 100.382 273.162 100.499 273.175ZM104.586 280.741C104.196 281.768 103.663 282.418 102.48 282.418C102.194 282.418 102.051 282.405 101.843 282.366V281.352C102.064 281.404 102.207 281.417 102.402 281.417C102.909 281.417 103.182 281.235 103.455 280.559L103.78 279.753L101.258 273.201H102.493L104.404 278.401L106.289 273.201H107.511L104.586 280.741Z" fill="#7e7e7e"/>
<line x1="48" y1="92.5" x2="430" y2="92.5" stroke="#ebebeb"/>
<path d="M65.473 109.745H61.222V111.344H60.13V108.666H66.799V109.745C64.511 112.28 63.848 114.633 63.848 118H62.587C62.587 114.373 63.588 111.838 65.473 109.745ZM72.7697 109.745H68.5187V111.344H67.4267V108.666H74.0957V109.745C71.8077 112.28 71.1447 114.633 71.1447 118H69.8837C69.8837 114.373 70.8847 111.838 72.7697 109.745ZM78.0844 118.143C76.3034 118.143 74.8864 117.168 74.5874 115.309L75.7964 115.049C75.9784 116.349 76.9014 117.103 78.0714 117.103C79.2544 117.103 80.0734 116.427 80.0734 115.322C80.0734 114.217 79.1764 113.671 77.9934 113.671H76.9924V112.618H78.0064C79.0854 112.618 79.8134 112.072 79.8134 111.136C79.8134 110.174 79.1504 109.576 78.0844 109.576C76.9664 109.576 76.1864 110.317 75.9784 111.487L74.8604 111.266C75.1074 109.706 76.3164 108.523 78.1104 108.523C79.9304 108.523 80.9834 109.589 80.9834 111.071C80.9834 112.085 80.3334 112.865 79.5404 113.125C80.4764 113.385 81.2824 114.1 81.2824 115.387C81.2824 116.921 80.0214 118.143 78.0844 118.143ZM84.0344 113.658L82.8904 113.463L83.2934 108.666H88.3764V109.758H84.2554L84.0084 112.579C84.4114 112.176 85.0484 111.851 85.8674 111.851C87.6874 111.851 88.8834 113.203 88.8834 114.971C88.8834 116.739 87.4924 118.143 85.6204 118.143C83.8654 118.143 82.5914 117.155 82.2664 115.387L83.4624 115.14C83.6574 116.336 84.4634 117.103 85.6204 117.103C86.8034 117.103 87.7134 116.193 87.7134 114.997C87.7134 113.814 86.9074 112.865 85.7244 112.865C84.9444 112.865 84.3464 113.216 84.0344 113.658ZM98.3347 118H97.1777V115.569H92.6667V114.594L96.7617 108.666H98.3477V114.529H100.155V115.569H98.3347V118ZM93.9407 114.529H97.1647V109.862L93.9407 114.529ZM100.986 113.333C100.986 110.486 102.325 108.523 104.548 108.523C106.758 108.523 108.097 110.486 108.097 113.333C108.097 116.18 106.758 118.143 104.548 118.143C102.325 118.143 100.986 116.18 100.986 113.333ZM102.234 113.333C102.234 115.517 103.027 117.051 104.548 117.051C106.056 117.051 106.862 115.517 106.862 113.333C106.862 111.149 106.056 109.615 104.548 109.615C103.027 109.615 102.234 111.149 102.234 113.333Z" fill="#3a3a3a"/>
<g style="mix-blend-mode:multiply">
<rect x="48" y="92" width="382" height="40" stroke="#d6d6d6" stroke-width="3"/>
</g>
<path d="M47.935 38.18L49.209 37.127C49.859 38.141 50.834 38.726 51.9 38.726C52.953 38.726 53.746 38.245 53.746 37.348C53.746 36.399 52.771 36.269 51.38 35.931C49.976 35.593 48.468 35.177 48.468 33.357C48.468 31.628 49.95 30.523 51.835 30.523C53.434 30.523 54.682 31.277 55.306 32.252L54.084 33.305C53.564 32.499 52.875 31.94 51.783 31.94C50.782 31.94 50.093 32.447 50.093 33.188C50.093 34.007 50.808 34.176 52.069 34.462C53.577 34.8 55.384 35.151 55.384 37.179C55.384 39.012 53.772 40.143 51.848 40.143C50.249 40.143 48.663 39.376 47.935 38.18ZM56.687 40V30.666H58.247V33.903C58.637 33.448 59.248 33.045 60.132 33.045C61.562 33.045 62.42 34.033 62.42 35.502V40H60.86V35.957C60.86 35.112 60.522 34.501 59.664 34.501C58.962 34.501 58.247 35.021 58.247 35.996V40H56.687ZM64.1862 32.265V30.666H65.7982V32.265H64.1862ZM65.7722 33.175V40H64.2122V33.175H65.7722ZM71.1344 40.143C70.2504 40.143 69.6004 39.792 69.1714 39.285V42.34H67.6114V33.175H69.1714V33.903C69.6004 33.396 70.2504 33.045 71.1344 33.045C73.0454 33.045 74.1374 34.657 74.1374 36.594C74.1374 38.531 73.0454 40.143 71.1344 40.143ZM69.1324 36.399V36.802C69.1324 38.063 69.8604 38.778 70.8224 38.778C71.9534 38.778 72.5644 37.894 72.5644 36.594C72.5644 35.294 71.9534 34.41 70.8224 34.41C69.8604 34.41 69.1324 35.112 69.1324 36.399ZM79.0658 40.143C78.1818 40.143 77.5318 39.792 77.1028 39.285V42.34H75.5428V33.175H77.1028V33.903C77.5318 33.396 78.1818 33.045 79.0658 33.045C80.9768 33.045 82.0688 34.657 82.0688 36.594C82.0688 38.531 80.9768 40.143 79.0658 40.143ZM77.0638 36.399V36.802C77.0638 38.063 77.7918 38.778 78.7538 38.778C79.8848 38.778 80.4958 37.894 80.4958 36.594C80.4958 35.294 79.8848 34.41 78.7538 34.41C77.7918 34.41 77.0638 35.112 77.0638 36.399ZM83.4483 32.265V30.666H85.0603V32.265H83.4483ZM85.0343 33.175V40H83.4743V33.175H85.0343ZM86.8735 40V33.175H88.4335V33.903C88.8235 33.448 89.4345 33.045 90.3185 33.045C91.7485 33.045 92.6065 34.033 92.6065 35.502V40H91.0465V35.957C91.0465 35.112 90.7085 34.501 89.8505 34.501C89.1485 34.501 88.4335 35.021 88.4335 35.996V40H86.8735ZM100.47 39.311C100.47 41.326 99.0917 42.483 97.1417 42.483C95.5687 42.483 94.4637 41.82 94.0347 40.494L95.4907 39.974C95.6987 40.741 96.2837 41.222 97.1417 41.222C98.1947 41.222 98.9097 40.702 98.9097 39.454V38.973C98.5457 39.454 97.8567 39.831 96.9857 39.831C95.1137 39.831 93.9957 38.31 93.9957 36.438C93.9957 34.566 95.1137 33.045 96.9857 33.045C97.8437 33.045 98.5457 33.422 98.9097 33.903V33.175H100.47V39.311ZM98.9357 36.373C98.9357 35.125 98.2597 34.41 97.2847 34.41C96.2057 34.41 95.5687 35.164 95.5687 36.438C95.5687 37.699 96.2057 38.466 97.2847 38.466C98.2597 38.466 98.9357 37.751 98.9357 36.529V36.373ZM110.448 38.362C110.448 38.921 110.474 39.506 110.552 40H109.031C109.005 39.831 108.992 39.649 108.992 39.454C108.55 39.883 107.874 40.117 107.055 40.117C105.755 40.117 104.754 39.324 104.754 38.102C104.754 36.802 105.729 36.23 107.042 35.957L108.927 35.567V35.229C108.927 34.618 108.498 34.397 107.796 34.397C106.977 34.397 106.626 34.722 106.587 35.32H105.066C105.118 33.747 106.314 33.045 107.887 33.045C109.486 33.045 110.448 33.747 110.448 34.982V38.362ZM108.927 37.595V36.763L107.458 37.075C106.795 37.218 106.301 37.426 106.301 38.037C106.301 38.57 106.691 38.869 107.289 38.869C108.121 38.869 108.927 38.427 108.927 37.595ZM114.813 40.143C112.902 40.143 111.81 38.531 111.81 36.594C111.81 34.657 112.902 33.045 114.813 33.045C115.697 33.045 116.347 33.396 116.776 33.903V30.666H118.336V40H116.776V39.285C116.347 39.792 115.697 40.143 114.813 40.143ZM116.815 36.399C116.815 35.112 116.087 34.41 115.125 34.41C113.994 34.41 113.383 35.294 113.383 36.594C113.383 37.894 113.994 38.778 115.125 38.778C116.087 38.778 116.815 38.063 116.815 36.802V36.399ZM122.744 40.143C120.833 40.143 119.741 38.531 119.741 36.594C119.741 34.657 120.833 33.045 122.744 33.045C123.628 33.045 124.278 33.396 124.707 33.903V30.666H126.267V40H124.707V39.285C124.278 39.792 123.628 40.143 122.744 40.143ZM124.746 36.399C124.746 35.112 124.018 34.41 123.056 34.41C121.925 34.41 121.314 35.294 121.314 36.594C121.314 37.894 121.925 38.778 123.056 38.778C124.018 38.778 124.746 38.063 124.746 36.802V36.399ZM131.976 33.162V34.722C131.781 34.696 131.625 34.683 131.404 34.683C130.416 34.683 129.662 35.32 129.662 36.412V40H128.102V33.175H129.662V34.189C129.961 33.552 130.663 33.136 131.534 33.136C131.716 33.136 131.859 33.149 131.976 33.162ZM135.809 40.143C133.859 40.143 132.494 38.7 132.494 36.594C132.494 34.592 133.846 33.045 135.744 33.045C137.72 33.045 138.773 34.54 138.773 36.412V36.932H133.989C134.106 38.102 134.808 38.817 135.809 38.817C136.576 38.817 137.187 38.427 137.395 37.725L138.734 38.232C138.253 39.428 137.174 40.143 135.809 40.143ZM135.731 34.358C134.925 34.358 134.301 34.839 134.067 35.762H137.2C137.187 35.008 136.719 34.358 135.731 34.358ZM139.428 38.7L140.598 37.764C141.001 38.427 141.781 38.869 142.574 38.869C143.237 38.869 143.848 38.635 143.848 38.024C143.848 37.439 143.276 37.374 142.197 37.153C141.118 36.932 139.883 36.659 139.883 35.203C139.883 33.955 140.975 33.045 142.548 33.045C143.744 33.045 144.81 33.578 145.304 34.332L144.251 35.281C143.861 34.67 143.211 34.319 142.457 34.319C141.82 34.319 141.404 34.605 141.404 35.06C141.404 35.554 141.898 35.645 142.756 35.827C143.913 36.074 145.369 36.321 145.369 37.881C145.369 39.259 144.108 40.143 142.561 40.143C141.3 40.143 140.039 39.636 139.428 38.7ZM146.052 38.7L147.222 37.764C147.625 38.427 148.405 38.869 149.198 38.869C149.861 38.869 150.472 38.635 150.472 38.024C150.472 37.439 149.9 37.374 148.821 37.153C147.742 36.932 146.507 36.659 146.507 35.203C146.507 33.955 147.599 33.045 149.172 33.045C150.368 33.045 151.434 33.578 151.928 34.332L150.875 35.281C150.485 34.67 149.835 34.319 149.081 34.319C148.444 34.319 148.028 34.605 148.028 35.06C148.028 35.554 148.522 35.645 149.38 35.827C150.537 36.074 151.993 36.321 151.993 37.881C151.993 39.259 150.732 40.143 149.185 40.143C147.924 40.143 146.663 39.636 146.052 38.7Z" fill="#2b2b2b"/>
</g>
<defs>
<filter id="filter0_dd_1249_41982" x="30" y="134" width="418" height="171" filterUnits="userSpaceOnUse" color-interpolation-filters="sRGB">
<feFlood flood-opacity="0" result="BackgroundImageFix"/>
<feColorMatrix in="SourceAlpha" type="matrix" values="0 0 0 0 0 0 0 0 0 0 0 0 0 0 0 0 0 0 127 0" result="hardAlpha"/>
<feMorphology radius="18" operator="erode" in="SourceAlpha" result="effect1_dropShadow_1249_41982"/>
<feOffset dy="18"/>
<feGaussianBlur stdDeviation="18"/>
<feColorMatrix type="matrix" values="0 0 0 0 0 0 0 0 0 0 0 0 0 0 0 0 0 0 0.1 0"/>
<feBlend mode="normal" in2="BackgroundImageFix" result="effect1_dropShadow_1249_41982"/>
<feColorMatrix in="SourceAlpha" type="matrix" values="0 0 0 0 0 0 0 0 0 0 0 0 0 0 0 0 0 0 127 0" result="hardAlpha"/>
<feMorphology radius="30" operator="erode" in="SourceAlpha" result="effect2_dropShadow_1249_41982"/>
<feOffset dy="30"/>
<feGaussianBlur stdDeviation="22.5"/>
<feColorMatrix type="matrix" values="0 0 0 0 0.196078 0 0 0 0 0.196078 0 0 0 0 0.364706 0 0 0 0.25 0"/>
<feBlend mode="normal" in2="effect1_dropShadow_1249_41982" result="effect2_dropShadow_1249_41982"/>
<feBlend mode="normal" in="SourceGraphic" in2="effect2_dropShadow_1249_41982" result="shape"/>
</filter>
<clipPath id="clip0_1249_41982">
<rect width="480" height="296" rx="8" fill="white"/>
</clipPath>
</defs>
</svg>
